<?xml version="1.0" encoding="UTF-8" standalone="no"?>
<svg
   xmlns:dc="http://purl.org/dc/elements/1.1/"
   xmlns:cc="http://creativecommons.org/ns#"
   xmlns:rdf="http://www.w3.org/1999/02/22-rdf-syntax-ns#"
   xmlns:svg="http://www.w3.org/2000/svg"
   xmlns="http://www.w3.org/2000/svg"
   xmlns:sodipodi="http://sodipodi.sourceforge.net/DTD/sodipodi-0.dtd"
   xmlns:inkscape="http://www.inkscape.org/namespaces/inkscape"
   width="100"
   height="118.91839"
   viewBox="0 0 80 95.134711"
   version="1.1"
   id="svg2"
   inkscape:version="0.48.2 r9819"
   sodipodi:docname="06 Logo Partai Gerindra.svg">
  <metadata
     id="metadata138">
    <rdf:RDF>
      <cc:Work
         rdf:about="">
        <dc:format>image/svg+xml</dc:format>
        <dc:type
           rdf:resource="http://purl.org/dc/dcmitype/StillImage" />
      </cc:Work>
    </rdf:RDF>
  </metadata>
  <defs
     id="defs136" />
  <sodipodi:namedview
     pagecolor="#ffffff"
     bordercolor="#666666"
     borderopacity="1"
     objecttolerance="10"
     gridtolerance="10"
     guidetolerance="10"
     inkscape:pageopacity="0"
     inkscape:pageshadow="2"
     inkscape:window-width="640"
     inkscape:window-height="480"
     id="namedview134"
     showgrid="false"
     fit-margin-top="0"
     fit-margin-left="0"
     fit-margin-right="0"
     fit-margin-bottom="0"
     inkscape:zoom="0.292"
     inkscape:cx="280.58749"
     inkscape:cy="333.82505"
     inkscape:window-x="0"
     inkscape:window-y="0"
     inkscape:window-maximized="0"
     inkscape:current-layer="svg2" />
  <g
     id="#ffffffff"
     transform="translate(-175.53,-454.92533)" />
  <g
     id="#342b29ff"
     transform="matrix(0.17811818,0,0,0.17811818,-31.265084,-2.840985)">
    <path
       d="m 280.85,99.79 c 38.56,-28.04 76.95,-56.32 115.89,-83.84 24.94,17.41 49.5,35.34 74.18,53.11 34.69,24.88 68.56,50.89 103.2,75.86 14.85,10.58 29.37,21.68 44.84,31.35 -0.91,4.98 -2.87,9.68 -4.37,14.51 -5.48,16.44 -10.78,32.93 -16.18,49.4 -3.75,11.63 -8.49,22.96 -11.39,34.86 -2.69,11.03 -7.76,21.3 -10.5,32.32 -2.75,11.13 -7.66,21.59 -10.44,32.71 -2.69,10.7 -6.9,20.93 -10.42,31.36 -3.56,10.87 -7.95,21.47 -10.78,32.56 -3.12,11.34 -8.24,22.07 -10.81,33.57 -90.36,-0.04 -180.73,-0.01 -271.09,-0.02 -1.19,0.03 -2.57,-0.07 -3.1,-1.33 -3.76,-6.33 -4.81,-13.78 -7.43,-20.58 -2.13,-5.26 -2.89,-10.94 -5.08,-16.17 -3.41,-8.04 -4.66,-16.77 -7.93,-24.86 -3.05,-7.1 -5.16,-14.56 -6.91,-22.08 -0.7,-3.55 -3.17,-6.4 -3.96,-9.92 -2.94,-11.96 -6.73,-23.71 -11.27,-35.16 -2.6,-6.9 -4.07,-14.16 -6.53,-21.11 -3.88,-10.69 -6.72,-21.72 -10.37,-32.49 -1.99,-6.32 -4.81,-12.37 -6.26,-18.85 -0.86,-3.9 -2.23,-7.65 -3.86,-11.28 -3.37,-7.77 -5.25,-16.05 -7.99,-24.03 -2.47,-7.44 -5.12,-14.84 -6.76,-22.52 6.25,-6.05 13.48,-10.94 20.5,-16.03 12.43,-9 25.39,-17.28 37.28,-27 7.71,-5.97 16.21,-10.86 23.74,-17.07 7.51,-6.32 15.77,-11.64 23.8,-17.27 M 388.14,29.18 C 319.48,79.32 250.9,129.57 182.16,179.6 c 2.28,12.66 7.66,24.48 11.71,36.62 4.4,10.57 5.82,22.08 10.29,32.62 4.67,11.72 6.69,24.35 12.07,35.8 2.95,6.84 3.84,14.35 6.7,21.22 4.22,10.35 6.02,21.52 10.58,31.74 4.45,10.19 5.7,21.43 10.17,31.62 2.78,6.38 4.59,13.11 6.49,19.79 3.16,11.52 7.63,22.64 10.59,34.22 0.8,3.23 2.08,6.32 3.73,9.2 87.53,-0.16 175.08,0.02 262.61,-0.09 3.62,0.51 4.31,-3.66 4.94,-6.26 1.28,-6.73 4.86,-12.74 5.97,-19.52 -9.38,0.91 -18.72,2.12 -28.09,3.06 -10.59,0.65 -22.09,0.89 -31.35,-5.12 -4.23,-2.42 -6.86,-6.67 -8.31,-11.2 -3.19,6.68 -10.35,9.24 -16.44,12.51 -1.37,0.61 -2.93,1.49 -4.39,0.61 -5.71,-2.56 -10.39,-6.93 -14.38,-11.67 -4.69,5.6 -10.73,9.67 -17.2,12.91 -6.22,-3.22 -12.94,-6.19 -16.88,-12.32 -2.81,6.74 -10.77,7.55 -15.69,12.11 -3.31,-1.68 -6.85,-2.87 -10.08,-4.7 -3.19,-2.1 -5.63,-5.12 -8.39,-7.72 -1.45,6.77 -8.04,10.07 -13.79,12.62 -7.47,-3.31 -15.14,-6.92 -20.71,-13.09 -1.98,9.05 -11,13.81 -19.31,15.74 -7.72,2.2 -15.69,0.42 -23.44,-0.55 -7.1,-0.85 -14.17,-1.95 -21.29,-2.64 -0.05,-0.84 -0.09,-1.68 -0.14,-2.51 5.74,0.07 11.79,-0.53 16.65,-3.87 4.37,-2.65 7.03,-7.28 8.12,-12.18 -6.67,-0.12 -13.07,-2.06 -19.56,-3.36 l 0.05,-1.42 c 11.77,-0.35 24.41,-7.72 26.87,-19.95 -7.26,-0.32 -15.09,-1.24 -21.06,-5.75 6.49,-2.15 14.17,-1.52 19.62,-6.24 4.37,-3.85 8.53,-8.61 9.43,-14.58 -8.57,-2 -17.21,-3.69 -25.68,-6.04 5.35,-4.81 13.16,-3.46 19.45,-6.17 7.06,-3.07 12.91,-8.57 17.1,-14.98 5.9,-8.85 11.84,-17.77 16.19,-27.5 2.58,-5.73 4.13,-12.29 2.45,-18.48 -1.66,-4.68 -6.16,-7.9 -10.84,-9.11 -6.34,-1.66 -12.84,0.08 -19.19,0.76 -13.78,1.59 -28.11,4.94 -41.68,0.33 -6.93,-1.71 -12.69,-6.57 -16.55,-12.45 -3.7,-5.73 -7.06,-11.84 -8.49,-18.58 6.91,3.48 14.17,6.7 21.95,7.49 9.79,0.91 19.65,1.46 29.49,0.99 -8.74,-0.53 -18.6,0.6 -25.97,-5.11 -4.73,-3.91 -3.76,-10.75 -3.52,-16.19 4.33,3.14 2.89,11.11 9,12.15 7.66,0.03 13.69,-5.97 21.3,-6.53 -9.2,-3.46 -17.54,-8.8 -26.75,-12.21 -7.49,-2.87 -15.74,-3.35 -23.65,-2.39 -7.71,1.07 -13.46,6.89 -20.47,9.75 0.84,-10.08 6.23,-19.25 13.49,-26.09 6.51,-6.53 15.27,-10 23.79,-13.08 6.05,-2.22 12.44,-3.42 18.89,-3.32 -0.12,-3.56 0,-7.23 -1.26,-10.62 -1.49,-4.03 -3.86,-7.65 -5.6,-11.57 6.39,-0.3 13.02,-0.51 18.94,2.35 -0.69,-5.82 -3.62,-10.9 -6.36,-15.95 3.87,0.02 7.98,-0.47 11.62,1.19 3.56,1.65 6.41,4.44 9.44,6.87 0.05,-3.28 0.4,-6.6 -0.09,-9.87 -1,-2.82 -2.83,-5.24 -4.33,-7.81 3.66,-0.63 7.92,-1.61 11.09,0.96 3.3,2.72 5.9,6.18 9.19,8.92 0.83,-2.64 2.07,-5.21 2.2,-8.02 -0.26,-2.22 -1.86,-3.95 -2.91,-5.84 3.69,0.44 7.85,0.08 11.03,2.35 2.45,2.47 4.17,5.54 6.49,8.13 2.36,-3.62 1.79,-7.97 1.35,-12.02 3.05,0.25 6.34,0.27 8.94,2.13 3.38,2.04 5.26,5.64 6.85,9.11 7.97,-0.18 16.01,0.05 23.72,2.29 11.44,2.14 22.43,5.96 33.41,9.72 7.99,3.14 16.14,6.41 24.84,6.73 7.95,0.21 15.91,0.03 23.87,0.09 10.49,0.14 20.74,-2.41 31.1,-3.64 9.97,-1.07 19.29,-4.97 28.88,-7.62 -0.61,8.83 -7.14,15.58 -13.51,21.03 -7.65,6.47 -17.85,8.38 -26.13,13.79 3.86,0.84 7.76,1.51 11.7,1.8 6.16,0.3 12.7,0.96 18.35,-2.06 -1.17,2.21 -2.41,4.45 -4.33,6.11 -8.59,7.8 -19.9,11.41 -29.38,17.87 7.85,1.57 15.81,2.65 23.55,4.74 -7.24,6.79 -16.92,10.13 -26.32,12.67 2.94,9.78 6.68,19.29 9.93,28.98 0.94,2.81 1.08,5.8 1.36,8.74 0.45,7.38 2.39,14.57 2.8,21.95 0.98,10.69 -1.39,21.48 0.44,32.12 1.01,6.22 4.44,12.3 10.12,15.33 5.43,3.28 11.91,3.47 18.03,4.21 -7.65,6.04 -17.84,6.36 -26.98,8.39 3.11,8.82 10.77,15.7 19.59,18.58 4.62,1.63 9.68,1.86 14.09,4.14 -7.39,2.03 -14.89,3.58 -22.31,5.5 1.5,7.4 8.16,11.89 14.16,15.59 5.23,3.19 11.51,3.19 17.41,3.9 -6.66,3.42 -14.41,3.62 -21.49,5.85 1.55,3.34 2.93,7.03 6.01,9.3 6.03,4.56 13.61,7.26 21.23,6.67 11.28,-34.51 22.15,-69.15 33.26,-103.71 5.68,-17.47 10.94,-35.07 17.09,-52.38 6.6,-19.36 13.01,-38.77 19.49,-58.16 0.98,-3.05 2.31,-6.03 2.66,-9.24 -1.97,-2.61 -4.76,-4.43 -7.28,-6.44 C 573.25,149.97 540.57,128.26 509.16,104.8 497.28,94.77 484.58,85.76 471.53,77.34 450.13,61.84 429.4,45.44 407.98,29.98 c -3.59,-2.37 -6.94,-5.27 -10.99,-6.82 -3.3,1.44 -5.91,4.01 -8.85,6.02 m -45.73,92.77 c 0.29,5.23 -0.44,10.5 -3.46,14.92 -5.06,-4.17 -6.99,-11.84 -14.07,-13.44 0.07,5.74 0.33,11.63 -2.07,17 -5.97,-4.54 -9.29,-12.87 -17.5,-13.97 3.33,6.74 3.07,14.39 3.27,21.7 -3.96,-1.72 -6.83,-4.96 -10.12,-7.61 -2.54,-2.1 -5.82,-2.81 -8.94,-3.57 3.51,6.35 5.1,13.55 4.99,20.79 -5.31,-3.28 -10.56,-7.25 -17.12,-7.24 3.22,6.15 5.63,12.88 5.23,19.93 8.97,1.35 18.23,3.87 25.51,9.5 2.17,1.42 1.98,4.05 1.56,6.29 -1.57,-0.59 -3.12,-1.34 -4.13,-2.72 -3.32,-4.25 -8.62,-6.09 -13.55,-7.73 -13.31,-4.37 -27.88,-1.03 -40.09,5.06 -10.33,5.36 -20.29,13.44 -23.97,24.89 4.55,-1.57 8.66,-4.23 13.31,-5.51 13.49,-2.01 27.13,1.1 39.72,5.84 7.39,3.88 14.55,8.31 22.35,11.37 12.34,3.75 25.47,0.74 37.98,3.24 -9.46,9.06 -23.33,9.46 -34.68,14.89 -9.25,4.45 -19.68,3.07 -29.59,3.28 -10.93,0.21 -21.23,-3.89 -31.29,-7.61 2.54,6.51 6.77,12.29 11.8,17.11 8.81,7.09 20.73,6.99 31.45,6.73 8.87,0.16 17.1,-4.3 25.99,-3.81 4.51,0.13 9.06,-0.3 13.54,0.39 8.77,1.68 15.39,10.45 14.55,19.36 -0.75,13.59 -10.08,24.26 -16.36,35.68 -2.96,5.76 -7.54,10.41 -12.19,14.82 -4.88,4.54 -11.57,6.14 -17.09,9.67 12.12,1.73 24.4,3.26 36.64,1.84 6.49,-0.93 12.47,-3.73 18.41,-6.35 1.58,-0.53 4.43,-1.46 5.12,0.71 1.5,4.18 0.71,8.96 3.05,12.9 3.4,8.02 11.75,11.91 18.58,16.51 5.41,-3.56 11.65,-6.67 15.09,-12.41 2.29,-5.53 2.49,-11.72 2.3,-17.63 0.83,0.01 2.49,0.04 3.32,0.05 0.6,7.22 0.51,15.6 6.31,20.92 3.88,3.1 8.01,6.1 12.56,8.14 5.61,-2.16 10.51,-6.07 14.63,-10.39 3.95,-6.04 4.75,-13.5 5.91,-20.46 6.92,0.31 12.75,4.54 19.4,6.02 5.95,1.51 12.15,0.76 18.22,0.93 8.58,0.33 16.46,-3.61 24.85,-4.7 -3.82,-2.43 -8.64,-3.85 -10.97,-8.05 -6.81,-9.26 -5.9,-21.32 -6.21,-32.19 -0.75,-10.97 -0.24,-22.02 -1.83,-32.92 -3.15,-11.59 -6.23,-23.21 -10.48,-34.44 -0.88,-2.19 -2.85,-4.01 -3.09,-6.38 1.14,-1.99 3.81,-2.25 5.84,-2.86 5.8,-0.98 11.21,-3.36 16.64,-5.54 -8,-2.96 -16.05,-5.77 -24.08,-8.64 -0.03,-0.42 -0.09,-1.25 -0.12,-1.67 3,-0.38 6.09,-0.73 8.77,-2.24 7.77,-3.89 16.72,-5.69 23.35,-11.6 -10.8,-2.3 -21.76,-3.89 -32.55,-6.23 -0.08,-0.35 -0.24,-1.05 -0.33,-1.4 3.01,-0.67 6.1,-1.08 8.94,-2.33 5.65,-2.35 11.83,-3.58 16.87,-7.2 7.77,-5.48 16.41,-10.25 22.04,-18.15 -8.39,1.02 -16.44,3.74 -24.8,4.94 -11.9,1.54 -23.79,3.73 -35.84,3.35 -16.32,0.46 -33.02,-1.81 -47.85,-8.93 -15.96,-9.12 -34.83,-10.69 -52.84,-11.37 -2.08,-4.99 -4.94,-10.55 -10.88,-11.48 M 275.9,228.58 c 7.7,1.33 15.56,1.52 23.31,0.59 7.47,-0.95 15.04,-1.81 22.18,-4.36 -2.8,-0.03 -5.6,0.08 -8.39,0.01 -5.83,0.01 -11.09,-3.28 -16.93,-3.15 -7.34,-0.15 -13.83,3.72 -20.17,6.91 m 167.18,102.45 c 0.35,4.85 1.23,9.79 3.75,14.01 4.21,7.44 12.12,12.07 20.26,14 10.3,2.5 20.96,1 31.37,0.21 2.12,-0.11 4.16,-0.75 5.99,-1.83 1.6,-0.07 3.21,-0.11 4.82,-0.16 -5.73,-3.3 -12.21,-5.73 -16.67,-10.83 -3.15,-3.1 -5.19,-7.07 -6.93,-11.08 -5.87,0.17 -11.73,0.82 -17.6,0.86 -8.56,-0.17 -16.98,-2.23 -24.99,-5.18 m -103.03,5.98 c -8.81,1.1 -17.77,1.93 -26.61,0.67 -2.22,10.16 -10.55,17.67 -19.86,21.54 5.85,1.23 11.82,1.67 17.74,2.4 11.09,0.84 23.41,0.47 32.52,-6.77 7.08,-5.37 10.17,-14.39 10.3,-23.03 -4.69,1.75 -9.02,4.68 -14.09,5.19 m 94.43,13.48 c -3.86,4.07 -9.69,5.38 -13.55,9.48 0.85,4.85 -0.23,10.71 3.69,14.44 3.27,3 7.14,5.5 11.37,6.89 4.9,-1.09 9.18,-4.18 13.09,-7.23 4.47,-3.64 5.68,-9.48 6.47,-14.88 -6.99,-4.09 -13.13,-10.25 -15.15,-18.3 -1.66,3.36 -3.23,6.9 -5.92,9.6 m -76.96,-7.65 c -2.4,7.17 -7.57,12.94 -13.73,17.16 1.63,5.24 3.13,11.01 7.36,14.82 4.4,3.22 9.34,5.65 14.22,8.07 3.08,-3.61 8.36,-4.52 10.81,-8.73 2.55,-3.77 1.75,-8.66 1.47,-12.93 -1.79,-3.2 -5.74,-4.35 -8.7,-6.24 -5.18,-2.53 -8.2,-7.63 -11.43,-12.15 m 41.14,0.29 c -2.13,8.29 -9.7,13.06 -16.49,17.3 1.21,4.43 1.23,9.49 4.35,13.16 3.57,4.29 9.08,6.07 13.96,8.39 3.61,-2.2 7.58,-3.8 11.02,-6.27 4.83,-3.53 5.66,-10.18 5.13,-15.7 -2.33,-3.72 -7.11,-4.7 -10.59,-7.06 -3.78,-2.05 -5.74,-6.04 -7.38,-9.82 m -94.98,21.21 c -0.72,4.87 -2.42,9.76 -6.04,13.26 -3.37,3.75 -8.3,5.27 -12.78,7.22 9.75,1.73 19.7,2.16 29.56,1.32 6.89,0.12 13.53,-2.77 19.06,-6.71 5.5,-4 7.08,-11.22 6.37,-17.66 -11.4,4.79 -24.16,3.56 -36.17,2.57 m 156.56,-2.6 c 0.44,3.61 0.66,7.37 2.38,10.66 1.91,3.9 5.39,6.83 9.29,8.62 8.43,3.71 17.76,5.66 26.97,4.59 6.46,-0.81 12.88,-1.86 19.34,-2.68 -5.23,-2.1 -10.48,-4.65 -14.35,-8.85 -2.95,-3.12 -4.5,-7.2 -6.28,-11.03 -6.15,0.82 -12.37,1.85 -18.58,1.14 -6.27,-0.72 -12.71,-0.52 -18.77,-2.45 m -116.66,7.46 c -0.83,3.06 -1.48,6.36 -3.64,8.82 -2.32,2.73 -5,5.11 -7.36,7.8 1.77,4.1 3,8.87 6.89,11.55 4.05,2.77 8.4,5.81 13.4,6.31 4.16,-1.13 7.8,-4.14 10.11,-7.75 1.24,-2.94 0.97,-6.41 0.41,-9.47 -4.29,-4.25 -10.57,-5.73 -14.99,-9.86 -2.37,-1.9 -3.54,-4.75 -4.82,-7.4 m 107.57,8 c -3.46,3.58 -8.98,3.91 -12.55,7.3 -1.38,2.87 -0.63,6.35 -0.05,9.36 1.36,4.7 6.54,6.27 10.48,8.19 3.87,2.17 7.87,-0.92 10.97,-3.08 4.34,-3.53 9.07,-7.83 9.86,-13.67 -2.66,-2.75 -6.09,-4.64 -8.58,-7.56 -2.2,-2.36 -3.37,-5.43 -4.37,-8.43 -1.82,2.7 -3.48,5.54 -5.76,7.89 m -32.81,-6.46 c -1.28,4.38 -4.2,8.11 -8.36,10.09 -2.99,1.94 -8.36,3.55 -7.06,8.18 0.58,7.46 7.88,11.55 14.18,13.77 4.41,0.59 8.48,-2.17 11.45,-5.16 3.19,-3.5 6.1,-8.41 5.06,-13.25 -3.73,-2.73 -8.62,-3.71 -11.78,-7.23 -1.72,-1.79 -2.43,-4.22 -3.49,-6.4 m -36.74,2.17 c -2.47,6.28 -8.61,9.5 -14.1,12.7 0.56,4.73 2.24,9.7 6.36,12.51 3.47,2.23 7.12,4.4 11.1,5.56 7.62,-2.18 14.82,-9.06 13.78,-17.59 -2.98,-4.39 -9.14,-4.52 -12.81,-8.09 -1.59,-1.58 -2.93,-3.37 -4.33,-5.09 m -68.57,17.05 c -5.35,0.58 -10.72,-0.03 -16.07,-0.21 -1.22,3.02 -2.4,6.17 -4.67,8.59 -3.31,3.68 -7.96,5.64 -12.12,8.16 9.2,1.24 18.47,1.28 27.72,0.98 7.3,-0.1 15.11,-3.01 19.22,-9.33 2.29,-3.32 2.27,-7.46 2.27,-11.31 -5.49,0.85 -10.8,2.65 -16.35,3.12 m 160.64,-2.97 c 0.44,3.61 0.62,7.47 2.67,10.61 1.84,2.9 4.93,4.71 8.05,5.96 5.64,2.16 11.52,4.23 17.66,4.01 7.86,-0.22 15.6,-1.75 23.41,-2.57 -4.39,-3.1 -9.76,-4.84 -13.42,-8.92 -2.09,-2.21 -3.18,-5.09 -4.3,-7.85 -11.35,2.15 -22.71,-0.87 -34.07,-1.24 z"
       id="path6"
       inkscape:connector-curvature="0"
       style="fill:#342b29" />
    <path
       d="m 522.31,476.77 c 4.26,0.2 8.83,-0.69 12.83,1.13 3.15,1.75 2.12,5.64 1.19,8.39 -4.52,1.7 -9.36,1.69 -14.1,1.52 0,-3.68 0.01,-7.36 0.08,-11.04 z"
       id="path8"
       inkscape:connector-curvature="0"
       style="fill:#342b29" />
    <path
       d="m 382.27,529.72 c 5.49,0.6 12.76,-1.94 16.67,3.22 2.64,4.59 2.77,11.8 -1.81,15.24 -4.53,2.46 -9.91,1.25 -14.83,1.49 -0.07,-6.65 -0.02,-13.3 -0.03,-19.95 m 6.27,4.23 c -0.08,3.78 -0.07,7.57 -0.04,11.36 1.42,-0.19 2.87,-0.28 4.26,-0.66 2.41,-1.68 1.62,-5.19 1.45,-7.69 -0.37,-2.8 -3.58,-2.64 -5.67,-3.01 z"
       id="path10"
       inkscape:connector-curvature="0"
       style="fill:#342b29" />
    <path
       d="m 410.45,529.65 c 4.69,-1.09 10.77,0.32 12.59,5.3 1.49,4.38 1.12,10.24 -2.89,13.2 -3.28,2.31 -7.77,2.32 -11.44,1.01 -8.23,-3.28 -7.3,-17.98 1.74,-19.51 m 1.71,4.51 c -3.34,1.22 -3.18,5.6 -2.49,8.45 0.79,3.09 5.45,3.78 7.14,1.09 2.05,-3.57 0.88,-11.04 -4.65,-9.54 z"
       id="path12"
       inkscape:connector-curvature="0"
       style="fill:#342b29" />
    <path
       d="m 490.83,529.71 c 2.04,0 4.08,0 6.13,0.01 -0.18,6.65 0.26,13.3 -0.01,19.96 -2.04,0.01 -4.07,0.01 -6.1,0.02 -0.02,-6.66 -0.01,-13.32 -0.02,-19.99 z"
       id="path14"
       inkscape:connector-curvature="0"
       style="fill:#342b29" />
    <path
       d="m 227.61,529.72 c 5.02,0.23 10.17,-0.58 15.1,0.6 4.45,2.12 3.4,9.21 -1.25,10.45 2.21,1.96 3.62,4.58 5.02,7.14 -0.49,0.61 -0.97,1.22 -1.46,1.84 -1.61,-0.05 -3.23,-0.09 -4.84,-0.12 -1.78,-3.09 -2.89,-6.94 -6.29,-8.69 -0.09,2.9 -0.09,5.82 -0.12,8.73 -2.05,0.01 -4.1,0.02 -6.15,0.03 -0.01,-6.66 0.01,-13.32 -0.01,-19.98 m 6.18,3.99 c 0.01,1.42 0.01,2.85 0.02,4.29 1.61,-0.21 3.26,-0.27 4.82,-0.78 0.76,-0.89 0.52,-2.17 0.69,-3.23 -1.84,-0.13 -3.68,-0.21 -5.53,-0.28 z"
       id="path16"
       inkscape:connector-curvature="0"
       style="fill:#342b29" />
    <path
       d="m 292.02,549.66 c 2.49,-6.65 4.97,-13.3 7.49,-19.94 2.24,0 4.48,0 6.73,-0.01 2.51,6.66 5.04,13.3 7.48,19.99 -2.14,-0.01 -4.28,-0.01 -6.42,-0.01 -0.32,-1.12 -0.64,-2.24 -0.95,-3.34 -2.36,-0.01 -4.72,-0.01 -7.08,-0.01 -0.34,1.12 -0.67,2.24 -0.99,3.37 -2.09,-0.02 -4.18,-0.03 -6.26,-0.05 m 8.58,-7.56 c 1.47,-0.01 2.94,-0.02 4.42,-0.01 -0.72,-2.42 -1.48,-4.82 -2.22,-7.23 -0.72,2.41 -1.46,4.82 -2.2,7.24 z"
       id="path18"
       inkscape:connector-curvature="0"
       style="fill:#342b29" />
    <path
       d="m 348.37,529.72 c 2.08,-0.01 4.17,-0.01 6.25,-0.01 -0.01,6.67 0,13.33 0,20 -2.08,-0.02 -4.16,-0.03 -6.23,-0.05 -0.03,-6.65 0,-13.29 -0.02,-19.94 z"
       id="path20"
       inkscape:connector-curvature="0"
       style="fill:#342b29" />
    <path
       d="m 427.15,529.72 c 1.94,-0.01 3.87,-0.01 5.82,0 2.48,3.68 5,7.34 7.48,11.02 -0.01,-3.68 0,-7.35 -0.01,-11.02 1.92,-0.01 3.85,-0.01 5.78,-0.01 0,6.66 0.01,13.33 -0.01,20 -1.92,-0.02 -3.83,-0.02 -5.74,-0.03 -2.5,-3.69 -5.03,-7.36 -7.56,-11.02 -0.01,3.67 0,7.35 -0.02,11.03 -1.91,-0.01 -3.81,-0.01 -5.7,-0.02 -0.05,-6.65 0,-13.3 -0.04,-19.95 z"
       id="path22"
       inkscape:connector-curvature="0"
       style="fill:#342b29" />
    <path
       d="m 532.46,529.72 c 5.05,0.24 10.24,-0.61 15.19,0.63 4.42,2.14 3.32,9.16 -1.28,10.42 2.71,2.35 4.27,5.65 5.32,9.03 -2.21,-0.1 -4.38,-0.11 -6.57,-0.14 -1.78,-3.11 -2.95,-6.92 -6.29,-8.75 -0.13,2.92 -0.13,5.84 -0.15,8.77 -2.07,0 -4.14,0.01 -6.21,0.01 0,-6.66 0.01,-13.31 -0.01,-19.97 m 6.25,3.91 c 0,1.46 0,2.91 0.02,4.38 2.29,-0.11 6.9,-0.34 5.19,-3.79 -1.71,-0.43 -3.47,-0.46 -5.21,-0.59 z"
       id="path24"
       inkscape:connector-curvature="0"
       style="fill:#342b29" />
  </g>
  <g
     id="#e5222aff"
     transform="matrix(0.17811818,0,0,0.17811818,-31.265084,-2.840985)">
    <path
       d="m 388.14,29.18 c 2.94,-2.01 5.55,-4.58 8.85,-6.02 4.05,1.55 7.4,4.45 10.99,6.82 21.42,15.46 42.15,31.86 63.55,47.36 13.05,8.42 25.75,17.43 37.63,27.46 31.41,23.46 64.09,45.17 95.35,68.84 2.52,2.01 5.31,3.83 7.28,6.44 -0.35,3.21 -1.68,6.19 -2.66,9.24 -6.48,19.39 -12.89,38.8 -19.49,58.16 -6.15,17.31 -11.41,34.91 -17.09,52.38 -11.11,34.56 -21.98,69.2 -33.26,103.71 -7.62,0.59 -15.2,-2.11 -21.23,-6.67 -3.08,-2.27 -4.46,-5.96 -6.01,-9.3 7.08,-2.23 14.83,-2.43 21.49,-5.85 -5.9,-0.71 -12.18,-0.71 -17.41,-3.9 -6,-3.7 -12.66,-8.19 -14.16,-15.59 7.42,-1.92 14.92,-3.47 22.31,-5.5 -4.41,-2.28 -9.47,-2.51 -14.09,-4.14 -8.82,-2.88 -16.48,-9.76 -19.59,-18.58 9.14,-2.03 19.33,-2.35 26.98,-8.39 -6.12,-0.74 -12.6,-0.93 -18.03,-4.21 -5.68,-3.03 -9.11,-9.11 -10.12,-15.33 -1.83,-10.64 0.54,-21.43 -0.44,-32.12 -0.41,-7.38 -2.35,-14.57 -2.8,-21.95 -0.28,-2.94 -0.42,-5.93 -1.36,-8.74 -3.25,-9.69 -6.99,-19.2 -9.93,-28.98 9.4,-2.54 19.08,-5.88 26.32,-12.67 -7.74,-2.09 -15.7,-3.17 -23.55,-4.74 9.48,-6.46 20.79,-10.07 29.38,-17.87 1.92,-1.66 3.16,-3.9 4.33,-6.11 -5.65,3.02 -12.19,2.36 -18.35,2.06 -3.94,-0.29 -7.84,-0.96 -11.7,-1.8 8.28,-5.41 18.48,-7.32 26.13,-13.79 6.37,-5.45 12.9,-12.2 13.51,-21.03 -9.59,2.65 -18.91,6.55 -28.88,7.62 -10.36,1.23 -20.61,3.78 -31.1,3.64 -7.96,-0.06 -15.92,0.12 -23.87,-0.09 -8.7,-0.32 -16.85,-3.59 -24.84,-6.73 -10.98,-3.76 -21.97,-7.58 -33.41,-9.72 -7.71,-2.24 -15.75,-2.47 -23.72,-2.29 -1.59,-3.47 -3.47,-7.07 -6.85,-9.11 -2.6,-1.86 -5.89,-1.88 -8.94,-2.13 0.44,4.05 1.01,8.4 -1.35,12.02 -2.32,-2.59 -4.04,-5.66 -6.49,-8.13 -3.18,-2.27 -7.34,-1.91 -11.03,-2.35 1.05,1.89 2.65,3.62 2.91,5.84 -0.13,2.81 -1.37,5.38 -2.2,8.02 -3.29,-2.74 -5.89,-6.2 -9.19,-8.92 -3.17,-2.57 -7.43,-1.59 -11.09,-0.96 1.5,2.57 3.33,4.99 4.33,7.81 0.49,3.27 0.14,6.59 0.09,9.87 -3.03,-2.43 -5.88,-5.22 -9.44,-6.87 -3.64,-1.66 -7.75,-1.17 -11.62,-1.19 2.74,5.05 5.67,10.13 6.36,15.95 -5.92,-2.86 -12.55,-2.65 -18.94,-2.35 1.74,3.92 4.11,7.54 5.6,11.57 1.26,3.39 1.14,7.06 1.26,10.62 -6.45,-0.1 -12.84,1.1 -18.89,3.32 -8.52,3.08 -17.28,6.55 -23.79,13.08 -7.26,6.84 -12.65,16.01 -13.49,26.09 7.01,-2.86 12.76,-8.68 20.47,-9.75 7.91,-0.96 16.16,-0.48 23.65,2.39 9.21,3.41 17.55,8.75 26.75,12.21 -7.61,0.56 -13.64,6.56 -21.3,6.53 -6.11,-1.04 -4.67,-9.01 -9,-12.15 -0.24,5.44 -1.21,12.28 3.52,16.19 7.37,5.71 17.23,4.58 25.97,5.11 -9.84,0.47 -19.7,-0.08 -29.49,-0.99 -7.78,-0.79 -15.04,-4.01 -21.95,-7.49 1.43,6.74 4.79,12.85 8.49,18.58 3.86,5.88 9.62,10.74 16.55,12.45 13.57,4.61 27.9,1.26 41.68,-0.33 6.35,-0.68 12.85,-2.42 19.19,-0.76 4.68,1.21 9.18,4.43 10.84,9.11 1.68,6.19 0.13,12.75 -2.45,18.48 -4.35,9.73 -10.29,18.65 -16.19,27.5 -4.19,6.41 -10.04,11.91 -17.1,14.98 -6.29,2.71 -14.1,1.36 -19.45,6.17 8.47,2.35 17.11,4.04 25.68,6.04 -0.9,5.97 -5.06,10.73 -9.43,14.58 -5.45,4.72 -13.13,4.09 -19.62,6.24 5.97,4.51 13.8,5.43 21.06,5.75 -2.46,12.23 -15.1,19.6 -26.87,19.95 l -0.05,1.42 c 6.49,1.3 12.89,3.24 19.56,3.36 -1.09,4.9 -3.75,9.53 -8.12,12.18 -4.86,3.34 -10.91,3.94 -16.65,3.87 0.05,0.83 0.09,1.67 0.14,2.51 7.12,0.69 14.19,1.79 21.29,2.64 7.75,0.97 15.72,2.75 23.44,0.55 8.31,-1.93 17.33,-6.69 19.31,-15.74 5.57,6.17 13.24,9.78 20.71,13.09 5.75,-2.55 12.34,-5.85 13.79,-12.62 2.76,2.6 5.2,5.62 8.39,7.72 3.23,1.83 6.77,3.02 10.08,4.7 4.92,-4.56 12.88,-5.37 15.69,-12.11 3.94,6.13 10.66,9.1 16.88,12.32 6.47,-3.24 12.51,-7.31 17.2,-12.91 3.99,4.74 8.67,9.11 14.38,11.67 1.46,0.88 3.02,0 4.39,-0.61 6.09,-3.27 13.25,-5.83 16.44,-12.51 1.45,4.53 4.08,8.78 8.31,11.2 9.26,6.01 20.76,5.77 31.35,5.12 9.37,-0.94 18.71,-2.15 28.09,-3.06 -1.11,6.78 -4.69,12.79 -5.97,19.52 -0.63,2.6 -1.32,6.77 -4.94,6.26 -87.53,0.11 -175.08,-0.07 -262.61,0.09 -1.65,-2.88 -2.93,-5.97 -3.73,-9.2 -2.96,-11.58 -7.43,-22.7 -10.59,-34.22 -1.9,-6.68 -3.71,-13.41 -6.49,-19.79 -4.47,-10.19 -5.72,-21.43 -10.17,-31.62 -4.56,-10.22 -6.36,-21.39 -10.58,-31.74 -2.86,-6.87 -3.75,-14.38 -6.7,-21.22 -5.38,-11.45 -7.4,-24.08 -12.07,-35.8 -4.47,-10.54 -5.89,-22.05 -10.29,-32.62 -4.05,-12.14 -9.43,-23.96 -11.71,-36.62 C 250.9,129.57 319.48,79.32 388.14,29.18 z"
       id="path27"
       inkscape:connector-curvature="0"
       style="fill:#e5222a" />
    <path
       d="m 182.82,484.77 c 1.88,-9.01 9.18,-16.72 18.32,-18.42 7.2,-1.26 14.78,-1.35 21.88,0.56 6.24,1.7 10.32,7.37 12.07,13.33 -5.11,1 -10.24,1.94 -15.4,2.61 -3.27,-7.92 -15.52,-7.86 -19.42,-0.59 -2.74,5.46 -2.48,11.99 -1.3,17.83 0.86,4.76 5.19,8.35 9.97,8.61 4.51,0.62 8.78,-1.23 12.67,-3.29 0.03,-1.76 0.07,-3.52 0.11,-5.27 -3.67,-0.08 -7.34,-0.13 -11,-0.28 -0.02,-3.49 -0.04,-6.98 -0.1,-10.47 8.38,-0.26 16.77,-0.05 25.15,-0.12 -0.01,7.51 0.02,15.03 -0.03,22.54 -8.05,5.67 -17.74,9.06 -27.67,8.41 -7.32,-0.29 -15.17,-2.46 -19.96,-8.37 -6.16,-7.48 -7.05,-17.89 -5.29,-27.08 z"
       id="path29"
       inkscape:connector-curvature="0"
       style="fill:#e5222a" />
    <path
       d="m 245.7,466.52 c 14.61,-0.28 29.22,-0.08 43.83,-0.1 0,3.67 -0.01,7.35 -0.04,11.03 -9.13,0.03 -18.26,0.03 -27.39,-0.01 -0.25,2.95 -0.19,5.93 0.19,8.88 8.41,-0.17 16.83,-0.1 25.25,-0.05 -0.01,3.47 -0.02,6.94 -0.01,10.42 -8.45,0.02 -16.91,0.01 -25.36,0.01 -0.29,3.57 -0.35,7.16 -0.23,10.75 9.48,0.08 18.95,-0.01 28.43,0.06 -0.01,3.92 -0.02,7.86 -0.02,11.79 -14.87,-0.04 -29.73,-0.02 -44.59,-0.02 -0.06,-17.59 0.06,-35.17 -0.06,-52.76 z"
       id="path31"
       inkscape:connector-curvature="0"
       style="fill:#e5222a" />
    <path
       d="m 299.67,466.46 c 9.45,-0.13 18.89,-0.05 28.34,-0.06 4.9,0.07 10.24,0.26 14.34,3.31 6.82,5.4 6.71,17.15 0,22.6 -2.12,1.79 -4.82,2.63 -7.38,3.56 3.08,1.48 5.99,3.51 7.72,6.54 3.25,5.39 6.02,11.08 8.62,16.81 -5.92,0.11 -11.83,0.01 -17.75,0.12 -3.76,-6.03 -6.62,-12.56 -10.38,-18.57 -1.4,-2.76 -4.68,-2.91 -7.34,-3.41 -0.06,7.31 0.02,14.61 -0.05,21.92 -5.38,0 -10.75,-0.01 -16.12,0.02 -0.03,-17.62 -0.02,-35.23 0,-52.84 m 16.24,10.32 c -0.09,3.66 -0.11,7.34 -0.12,11.01 4.03,-0.03 8.17,0.4 12.1,-0.76 2.3,-0.64 2.78,-3.3 3.86,-5.09 -1.14,-1.64 -1.87,-4.05 -4.05,-4.56 -3.85,-0.98 -7.87,-0.55 -11.79,-0.6 z"
       id="path33"
       inkscape:connector-curvature="0"
       style="fill:#e5222a" />
    <path
       d="m 357.72,466.51 c 5.41,-0.16 10.83,-0.14 16.25,-0.11 0.46,13.84 0.04,27.69 0.22,41.54 0.07,3.81 -0.02,7.63 -0.48,11.42 -5.24,-0.19 -10.5,0.18 -15.72,-0.24 -0.54,-17.52 0,-35.08 -0.27,-52.61 z"
       id="path35"
       inkscape:connector-curvature="0"
       style="fill:#e5222a" />
    <path
       d="m 386.26,466.4 c 5.05,-0.01 10.1,-0.01 15.15,0 6.67,9.72 13.02,19.67 20.04,29.13 0.26,-9.7 0.06,-19.4 0.11,-29.1 5.05,-0.05 10.09,-0.05 15.14,-0.02 -0.01,17.62 0.09,35.25 -0.05,52.88 -5,-0.02 -9.99,-0.03 -14.97,0.04 -6.94,-9.66 -13.4,-19.66 -20.24,-29.38 -0.09,9.78 -0.01,19.55 -0.07,29.33 -5,-0.02 -9.99,-0.01 -14.98,0.06 -0.31,-17.64 -0.07,-35.29 -0.13,-52.94 z"
       id="path37"
       inkscape:connector-curvature="0"
       style="fill:#e5222a" />
    <path
       d="m 448.21,466.42 c 9.13,0.04 18.27,-0.18 27.39,0.07 6.16,0.2 12.41,2.83 16.09,7.92 5.23,7.01 5.52,16.27 4.76,24.64 -0.57,7.6 -5.18,15.05 -12.31,18.08 -4.81,1.87 -10.04,2.22 -15.14,2.18 -6.92,-0.07 -13.85,-0.01 -20.77,-0.03 -0.04,-17.62 0.01,-35.24 -0.02,-52.86 m 16.1,11.78 c 0.06,9.77 -0.05,19.54 0.05,29.32 5,-0.23 12.05,0.94 14.66,-4.59 2.3,-6.29 2.19,-13.66 -0.12,-19.93 -2.72,-5.38 -9.51,-4.86 -14.59,-4.8 z"
       id="path39"
       inkscape:connector-curvature="0"
       style="fill:#e5222a" />
    <path
       d="m 505.88,466.38 c 9.71,0.04 19.42,-0.02 29.13,0.04 4.61,0.12 9.62,0.37 13.48,3.2 5.67,4.34 6.5,13.02 3.22,19.05 -2.19,3.99 -6.49,6.04 -10.68,7.25 3.13,1.3 6,3.33 7.76,6.29 3.43,5.45 5.94,11.41 9.03,17.06 -6.05,0.03 -12.1,-0.02 -18.15,0.05 -3.61,-6.13 -6.54,-12.66 -10.32,-18.68 -1.4,-2.57 -4.5,-2.79 -7.04,-3.29 -0.13,7.31 -0.04,14.62 -0.08,21.93 -5.34,0 -10.69,-0.02 -16.03,0.08 -0.36,-3.43 -0.45,-6.87 -0.42,-10.3 0.11,-14.23 -0.09,-28.45 0.1,-42.68 m 16.43,10.39 c -0.07,3.68 -0.08,7.36 -0.08,11.04 4.74,0.17 9.58,0.18 14.1,-1.52 0.93,-2.75 1.96,-6.64 -1.19,-8.39 -4,-1.82 -8.57,-0.93 -12.83,-1.13 z"
       id="path41"
       inkscape:connector-curvature="0"
       style="fill:#e5222a" />
    <path
       d="m 577.95,466.46 c 5.93,-0.1 11.88,-0.08 17.82,-0.04 6.38,17.66 13.6,35.02 19.51,52.84 -5.5,0.05 -11,0.02 -16.49,0.04 -0.91,-2.93 -1.81,-5.86 -2.66,-8.8 -6.3,-0.06 -12.59,-0.04 -18.88,-0.02 -0.9,2.95 -1.8,5.9 -2.77,8.83 -5.44,-0.06 -10.88,-0.03 -16.31,-0.04 6.53,-17.63 13.28,-35.17 19.78,-52.81 m 8.84,13.29 c -2.21,6.44 -4.26,12.95 -5.88,19.57 3.93,-0.02 7.86,-0.02 11.8,-0.06 -1.89,-6.53 -4.03,-12.99 -5.92,-19.51 z"
       id="path43"
       inkscape:connector-curvature="0"
       style="fill:#e5222a" />
  </g>
  <g
     id="#fccf00ff"
     transform="matrix(0.17811818,0,0,0.17811818,-31.265084,-2.840985)">
    <path
       d="m 342.41,121.95 c 5.94,0.93 8.8,6.49 10.88,11.48 18.01,0.68 36.88,2.25 52.84,11.37 14.83,7.12 31.53,9.39 47.85,8.93 12.05,0.38 23.94,-1.81 35.84,-3.35 8.36,-1.2 16.41,-3.92 24.8,-4.94 -5.63,7.9 -14.27,12.67 -22.04,18.15 -5.04,3.62 -11.22,4.85 -16.87,7.2 -2.84,1.25 -5.93,1.66 -8.94,2.33 0.09,0.35 0.25,1.05 0.33,1.4 10.79,2.34 21.75,3.93 32.55,6.23 -6.63,5.91 -15.58,7.71 -23.35,11.6 -2.68,1.51 -5.77,1.86 -8.77,2.24 0.03,0.42 0.09,1.25 0.12,1.67 8.03,2.87 16.08,5.68 24.08,8.64 -5.43,2.18 -10.84,4.56 -16.64,5.54 -2.03,0.61 -4.7,0.87 -5.84,2.86 0.24,2.37 2.21,4.19 3.09,6.38 4.25,11.23 7.33,22.85 10.48,34.44 1.59,10.9 1.08,21.95 1.83,32.92 0.31,10.87 -0.6,22.93 6.21,32.19 2.33,4.2 7.15,5.62 10.97,8.05 -8.39,1.09 -16.27,5.03 -24.85,4.7 -6.07,-0.17 -12.27,0.58 -18.22,-0.93 -6.65,-1.48 -12.48,-5.71 -19.4,-6.02 -1.16,6.96 -1.96,14.42 -5.91,20.46 -4.12,4.32 -9.02,8.23 -14.63,10.39 -4.55,-2.04 -8.68,-5.04 -12.56,-8.14 -5.8,-5.32 -5.71,-13.7 -6.31,-20.92 -0.83,-0.01 -2.49,-0.04 -3.32,-0.05 0.19,5.91 -0.01,12.1 -2.3,17.63 -3.44,5.74 -9.68,8.85 -15.09,12.41 -6.83,-4.6 -15.18,-8.49 -18.58,-16.51 -2.34,-3.94 -1.55,-8.72 -3.05,-12.9 -0.69,-2.17 -3.54,-1.24 -5.12,-0.71 -5.94,2.62 -11.92,5.42 -18.41,6.35 -12.24,1.42 -24.52,-0.11 -36.64,-1.84 5.52,-3.53 12.21,-5.13 17.09,-9.67 4.65,-4.41 9.23,-9.06 12.19,-14.82 6.28,-11.42 15.61,-22.09 16.36,-35.68 0.84,-8.91 -5.78,-17.68 -14.55,-19.36 -4.48,-0.69 -9.03,-0.26 -13.54,-0.39 -8.89,-0.49 -17.12,3.97 -25.99,3.81 -10.72,0.26 -22.64,0.36 -31.45,-6.73 -5.03,-4.82 -9.26,-10.6 -11.8,-17.11 10.06,3.72 20.36,7.82 31.29,7.61 9.91,-0.21 20.34,1.17 29.59,-3.28 11.35,-5.43 25.22,-5.83 34.68,-14.89 -12.51,-2.5 -25.64,0.51 -37.98,-3.24 -7.8,-3.06 -14.96,-7.49 -22.35,-11.37 -12.59,-4.74 -26.23,-7.85 -39.72,-5.84 -4.65,1.28 -8.76,3.94 -13.31,5.51 3.68,-11.45 13.64,-19.53 23.97,-24.89 12.21,-6.09 26.78,-9.43 40.09,-5.06 4.93,1.64 10.23,3.48 13.55,7.73 1.01,1.38 2.56,2.13 4.13,2.72 0.42,-2.24 0.61,-4.87 -1.56,-6.29 -7.28,-5.63 -16.54,-8.15 -25.51,-9.5 0.4,-7.05 -2.01,-13.78 -5.23,-19.93 6.56,-0.01 11.81,3.96 17.12,7.24 0.11,-7.24 -1.48,-14.44 -4.99,-20.79 3.12,0.76 6.4,1.47 8.94,3.57 3.29,2.65 6.16,5.89 10.12,7.61 -0.2,-7.31 0.06,-14.96 -3.27,-21.7 8.21,1.1 11.53,9.43 17.5,13.97 2.4,-5.37 2.14,-11.26 2.07,-17 7.08,1.6 9.01,9.27 14.07,13.44 3.02,-4.42 3.75,-9.69 3.46,-14.92 m 25.28,41.59 c -9.13,2.05 -18.22,5.39 -27.73,4.42 -3.34,0.11 -6.14,-1.95 -9.36,-2.45 -1.67,3.52 2.92,4.51 5.36,5.4 11.01,2.41 21.81,-1.86 32.31,-4.64 5.16,-1.6 10.49,-0.17 15.74,-0.12 -4.52,-3.76 -10.85,-4.36 -16.32,-2.61 m -68.04,3.28 c 0.78,2.98 2.18,5.92 4.78,7.73 3.26,2.73 7.94,3.29 10.82,6.5 1.3,4.52 -4.02,5.58 -7.11,6.67 2.57,-0.21 5.41,0.42 7.77,-0.91 3.04,-1.47 2.86,-5.82 1.58,-8.4 -2.68,-2.71 -6.77,-3.11 -9.83,-5.26 -2.78,-1.97 -5.16,-4.46 -8.01,-6.33 m 49.35,9.32 c -6.21,0.11 -12.42,0.09 -18.63,0.3 0.38,0.72 1.14,2.17 1.52,2.89 3.71,0.01 7.42,0.1 11.12,0.36 1.4,1.96 2.84,3.97 4.86,5.35 1.04,-0.95 1.78,-2.17 2.58,-3.32 0.12,1.6 0.26,3.19 0.41,4.79 2.29,-0.03 4.84,0.73 6.97,-0.34 3.99,-3.41 7,-7.79 10.6,-11.58 2.95,-0.88 6.09,-0.61 9.13,-0.85 -3.68,2.13 -7.71,4.02 -10.24,7.59 -3.91,4.98 -8.54,10.44 -15.32,11 -5.01,1 -9.06,-2.63 -13.06,-4.95 1.57,3.39 3.53,8.16 8.05,7.97 3.58,-0.02 7.67,0.73 10.76,-1.54 6.14,-4.51 10.24,-11.2 16.19,-15.91 3.55,-1.76 6.97,1.46 10.32,2.34 -1.51,-2.65 -3.6,-4.88 -5.67,-7.1 -3.26,-1.43 -6.93,-1.56 -10.43,-1.46 -6.29,1.8 -12.52,4.33 -19.16,4.46 m 74.38,11.29 c -1.53,0.75 -2.26,2.44 -3.27,3.71 1.43,0.81 2.93,1.52 4.47,2.13 3.92,-2.89 8.43,-5.78 13.51,-5.45 4.27,-0.46 7.28,5.69 4.69,8.91 -2.6,3.65 -5.67,7.21 -9.85,9.07 -2.8,1.21 -5.28,3.06 -6.88,5.71 3.66,0.38 7.35,0.11 11.03,0.37 1.92,0.09 4.21,1.19 4.53,3.29 0.54,3.32 -2.11,6.01 -4.28,8.13 -2.53,2.66 -6.49,1.27 -9.67,1.45 1.06,3.24 4.43,5.54 4.3,9.15 -0.03,1.84 0.29,4.33 -1.68,5.34 -3.38,2.22 -7.4,0.35 -10.93,-0.39 -0.21,3.74 -0.21,7.49 -0.23,11.24 -8.84,0.97 -13.39,-7.83 -19.99,-11.88 2.86,5.1 6.81,9.72 11.67,13.01 3.83,2.65 9.92,2.18 12.4,-2.08 0.48,-1.67 0.41,-3.43 0.57,-5.15 3.29,-0.25 7.27,0.18 9.69,-2.57 2.99,-3.63 2.63,-8.86 0.67,-12.88 5.58,-1.06 11.4,-5.32 11.19,-11.54 0.82,-5.28 -5.13,-7.16 -8.85,-9.03 4.05,-3.42 8.74,-6.95 9.98,-12.41 0.92,-3.86 0.24,-9.22 -3.91,-10.89 -6.51,-1.57 -13.15,0.25 -19.16,2.76 m -88.63,12.38 c 0.01,0.69 0.02,2.05 0.03,2.73 1.87,0.31 3.97,0.05 5.66,1.06 1.71,3.01 1.01,6.62 1.01,9.92 1.47,1.64 3,3.94 5.59,3.4 5.65,-0.64 11.6,-3.85 17.21,-1.23 3.41,1.53 2.87,5.88 2.29,8.89 -2.05,3.24 -6.37,3.35 -9.7,4.37 -3.96,0.68 -7.15,3.3 -9.88,6.08 -3.36,3.3 -4.31,8.11 -6.55,12.12 0.43,-0.25 1.29,-0.76 1.72,-1.01 1.21,-3.47 2.65,-7.05 5.66,-9.37 5.52,-5.31 14.3,-3.89 19.94,-9 4.04,-3.45 3.96,-10.94 -0.82,-13.71 -6.49,-4.24 -14.42,-1.28 -21.4,-0.29 -1.24,-3.71 -0.81,-7.7 -1.57,-11.47 -1.69,-3.64 -5.95,-3.22 -9.19,-2.49 z"
       id="path46"
       inkscape:connector-curvature="0"
       style="fill:#fccf00" />
    <path
       d="m 443.08,331.03 c 8.01,2.95 16.43,5.01 24.99,5.18 5.87,-0.04 11.73,-0.69 17.6,-0.86 1.74,4.01 3.78,7.98 6.93,11.08 4.46,5.1 10.94,7.53 16.67,10.83 -1.61,0.05 -3.22,0.09 -4.82,0.16 -1.83,1.08 -3.87,1.72 -5.99,1.83 -10.41,0.79 -21.07,2.29 -31.37,-0.21 -8.14,-1.93 -16.05,-6.56 -20.26,-14 -2.52,-4.22 -3.4,-9.16 -3.75,-14.01 z"
       id="path48"
       inkscape:connector-curvature="0"
       style="fill:#fccf00" />
    <path
       d="m 340.05,337.01 c 5.07,-0.51 9.4,-3.44 14.09,-5.19 -0.13,8.64 -3.22,17.66 -10.3,23.03 -9.11,7.24 -21.43,7.61 -32.52,6.77 -5.92,-0.73 -11.89,-1.17 -17.74,-2.4 9.31,-3.87 17.64,-11.38 19.86,-21.54 8.84,1.26 17.8,0.43 26.61,-0.67 z"
       id="path50"
       inkscape:connector-curvature="0"
       style="fill:#fccf00" />
    <path
       d="m 434.48,350.49 c 2.69,-2.7 4.26,-6.24 5.92,-9.6 2.02,8.05 8.16,14.21 15.15,18.3 -0.79,5.4 -2,11.24 -6.47,14.88 -3.91,3.05 -8.19,6.14 -13.09,7.23 -4.23,-1.39 -8.1,-3.89 -11.37,-6.89 -3.92,-3.73 -2.84,-9.59 -3.69,-14.44 3.86,-4.1 9.69,-5.41 13.55,-9.48 z"
       id="path52"
       inkscape:connector-curvature="0"
       style="fill:#fccf00" />
    <path
       d="m 357.52,342.84 c 3.23,4.52 6.25,9.62 11.43,12.15 2.96,1.89 6.91,3.04 8.7,6.24 0.28,4.27 1.08,9.16 -1.47,12.93 -2.45,4.21 -7.73,5.12 -10.81,8.73 -4.88,-2.42 -9.82,-4.85 -14.22,-8.07 -4.23,-3.81 -5.73,-9.58 -7.36,-14.82 6.16,-4.22 11.33,-9.99 13.73,-17.16 z"
       id="path54"
       inkscape:connector-curvature="0"
       style="fill:#fccf00" />
    <path
       d="m 398.66,343.13 c 1.64,3.78 3.6,7.77 7.38,9.82 3.48,2.36 8.26,3.34 10.59,7.06 0.53,5.52 -0.3,12.17 -5.13,15.7 -3.44,2.47 -7.41,4.07 -11.02,6.27 -4.88,-2.32 -10.39,-4.1 -13.96,-8.39 -3.12,-3.67 -3.14,-8.73 -4.35,-13.16 6.79,-4.24 14.36,-9.01 16.49,-17.3 z"
       id="path56"
       inkscape:connector-curvature="0"
       style="fill:#fccf00" />
    <path
       d="m 303.68,364.34 c 12.01,0.99 24.77,2.22 36.17,-2.57 0.71,6.44 -0.87,13.66 -6.37,17.66 -5.53,3.94 -12.17,6.83 -19.06,6.71 -9.86,0.84 -19.81,0.41 -29.56,-1.32 4.48,-1.95 9.41,-3.47 12.78,-7.22 3.62,-3.5 5.32,-8.39 6.04,-13.26 z"
       id="path58"
       inkscape:connector-curvature="0"
       style="fill:#fccf00" />
    <path
       d="m 460.24,361.74 c 6.06,1.93 12.5,1.73 18.77,2.45 6.21,0.71 12.43,-0.32 18.58,-1.14 1.78,3.83 3.33,7.91 6.28,11.03 3.87,4.2 9.12,6.75 14.35,8.85 -6.46,0.82 -12.88,1.87 -19.34,2.68 -9.21,1.07 -18.54,-0.88 -26.97,-4.59 -3.9,-1.79 -7.38,-4.72 -9.29,-8.62 -1.72,-3.29 -1.94,-7.05 -2.38,-10.66 z"
       id="path60"
       inkscape:connector-curvature="0"
       style="fill:#fccf00" />
    <path
       d="m 343.58,369.2 c 1.28,2.65 2.45,5.5 4.82,7.4 4.42,4.13 10.7,5.61 14.99,9.86 0.56,3.06 0.83,6.53 -0.41,9.47 -2.31,3.61 -5.95,6.62 -10.11,7.75 -5,-0.5 -9.35,-3.54 -13.4,-6.31 -3.89,-2.68 -5.12,-7.45 -6.89,-11.55 2.36,-2.69 5.04,-5.07 7.36,-7.8 2.16,-2.46 2.81,-5.76 3.64,-8.82 z"
       id="path62"
       inkscape:connector-curvature="0"
       style="fill:#fccf00" />
    <path
       d="m 451.15,377.2 c 2.28,-2.35 3.94,-5.19 5.76,-7.89 1,3 2.17,6.07 4.37,8.43 2.49,2.92 5.92,4.81 8.58,7.56 -0.79,5.84 -5.52,10.14 -9.86,13.67 -3.1,2.16 -7.1,5.25 -10.97,3.08 -3.94,-1.92 -9.12,-3.49 -10.48,-8.19 -0.58,-3.01 -1.33,-6.49 0.05,-9.36 3.57,-3.39 9.09,-3.72 12.55,-7.3 z"
       id="path64"
       inkscape:connector-curvature="0"
       style="fill:#fccf00" />
    <path
       d="m 418.34,370.74 c 1.06,2.18 1.77,4.61 3.49,6.4 3.16,3.52 8.05,4.5 11.78,7.23 1.04,4.84 -1.87,9.75 -5.06,13.25 -2.97,2.99 -7.04,5.75 -11.45,5.16 -6.3,-2.22 -13.6,-6.31 -14.18,-13.77 -1.3,-4.63 4.07,-6.24 7.06,-8.18 4.16,-1.98 7.08,-5.71 8.36,-10.09 z"
       id="path66"
       inkscape:connector-curvature="0"
       style="fill:#fccf00" />
    <path
       d="m 381.6,372.91 c 1.4,1.72 2.74,3.51 4.33,5.09 3.67,3.57 9.83,3.7 12.81,8.09 1.04,8.53 -6.16,15.41 -13.78,17.59 -3.98,-1.16 -7.63,-3.33 -11.1,-5.56 -4.12,-2.81 -5.8,-7.78 -6.36,-12.51 5.49,-3.2 11.63,-6.42 14.1,-12.7 z"
       id="path68"
       inkscape:connector-curvature="0"
       style="fill:#fccf00" />
    <path
       d="m 313.03,389.96 c 5.55,-0.47 10.86,-2.27 16.35,-3.12 0,3.85 0.02,7.99 -2.27,11.31 -4.11,6.32 -11.92,9.23 -19.22,9.33 -9.25,0.3 -18.52,0.26 -27.72,-0.98 4.16,-2.52 8.81,-4.48 12.12,-8.16 2.27,-2.42 3.45,-5.57 4.67,-8.59 5.35,0.18 10.72,0.79 16.07,0.21 z"
       id="path70"
       inkscape:connector-curvature="0"
       style="fill:#fccf00" />
    <path
       d="m 473.67,386.99 c 11.36,0.37 22.72,3.39 34.07,1.24 1.12,2.76 2.21,5.64 4.3,7.85 3.66,4.08 9.03,5.82 13.42,8.92 -7.81,0.82 -15.55,2.35 -23.41,2.57 -6.14,0.22 -12.02,-1.85 -17.66,-4.01 -3.12,-1.25 -6.21,-3.06 -8.05,-5.96 -2.05,-3.14 -2.23,-7 -2.67,-10.61 z"
       id="path72"
       inkscape:connector-curvature="0"
       style="fill:#fccf00" />
  </g>
  <g
     id="#6f453cff"
     transform="matrix(0.17811818,0,0,0.17811818,-31.265084,-2.840985)">
    <path
       d="m 367.69,163.54 c 5.47,-1.75 11.8,-1.15 16.32,2.61 -5.25,-0.05 -10.58,-1.48 -15.74,0.12 -10.5,2.78 -21.3,7.05 -32.31,4.64 -2.44,-0.89 -7.03,-1.88 -5.36,-5.4 3.22,0.5 6.02,2.56 9.36,2.45 9.51,0.97 18.6,-2.37 27.73,-4.42 z"
       id="path75"
       inkscape:connector-curvature="0"
       style="fill:#6f453c" />
    <path
       d="m 378.59,173.14 c 2.07,2.22 4.16,4.45 5.67,7.1 -3.35,-0.88 -6.77,-4.1 -10.32,-2.34 -5.95,4.71 -10.05,11.4 -16.19,15.91 -3.09,2.27 -7.18,1.52 -10.76,1.54 -4.52,0.19 -6.48,-4.58 -8.05,-7.97 4,2.32 8.05,5.95 13.06,4.95 6.78,-0.56 11.41,-6.02 15.32,-11 2.53,-3.57 6.56,-5.46 10.24,-7.59 0.26,-0.15 0.77,-0.45 1.03,-0.6 z"
       id="path77"
       inkscape:connector-curvature="0"
       style="fill:#6f453c" />
  </g>
  <g
     id="#463f34ff"
     transform="matrix(0.17811818,0,0,0.17811818,-31.265084,-2.840985)">
    <path
       d="m 299.65,166.82 c 2.85,1.87 5.23,4.36 8.01,6.33 3.06,2.15 7.15,2.55 9.83,5.26 1.28,2.58 1.46,6.93 -1.58,8.4 -2.36,1.33 -5.2,0.7 -7.77,0.91 3.09,-1.09 8.41,-2.15 7.11,-6.67 -2.88,-3.21 -7.56,-3.77 -10.82,-6.5 -2.6,-1.81 -4,-4.75 -4.78,-7.73 z"
       id="path80"
       inkscape:connector-curvature="0"
       style="fill:#463f34" />
  </g>
  <g
     id="#342c2aff"
     transform="matrix(0.17811818,0,0,0.17811818,-31.265084,-2.840985)">
    <path
       d="m 349,176.14 c 6.64,-0.13 12.87,-2.66 19.16,-4.46 3.5,-0.1 7.17,0.03 10.43,1.46 -0.26,0.15 -0.77,0.45 -1.03,0.6 -3.04,0.24 -6.18,-0.03 -9.13,0.85 -3.6,3.79 -6.61,8.17 -10.6,11.58 -2.13,1.07 -4.68,0.31 -6.97,0.34 -0.15,-1.6 -0.29,-3.19 -0.41,-4.79 -0.8,1.15 -1.54,2.37 -2.58,3.32 -2.02,-1.38 -3.46,-3.39 -4.86,-5.35 -3.7,-0.26 -7.41,-0.35 -11.12,-0.36 -0.38,-0.72 -1.14,-2.17 -1.52,-2.89 6.21,-0.21 12.42,-0.19 18.63,-0.3 z"
       id="path83"
       inkscape:connector-curvature="0"
       style="fill:#342c2a" />
    <path
       d="m 329.07,529.72 c 1.92,-0.01 3.84,-0.01 5.77,0 -0.04,6.65 0.01,13.3 -0.04,19.95 -1.91,0.02 -3.81,0.03 -5.71,0.05 -2.52,-3.64 -5.02,-7.29 -7.48,-10.98 0.01,3.64 0.02,7.29 -0.01,10.94 -1.95,0 -3.9,0.02 -5.84,0.03 -0.02,-6.67 0,-13.34 -0.01,-20.01 1.93,0.01 3.87,0.02 5.82,0.03 2.43,3.64 4.91,7.25 7.38,10.87 -0.02,-3.63 0.03,-7.26 0.12,-10.88 z"
       id="path85"
       inkscape:connector-curvature="0"
       style="fill:#342c2a" />
    <path
       d="m 359.04,529.72 c 1.94,-0.01 3.89,-0.01 5.84,0 2.49,3.66 4.97,7.33 7.49,10.97 0,-3.66 0,-7.32 0,-10.97 1.92,-0.01 3.84,-0.01 5.76,-0.01 0,6.67 0.01,13.34 -0.01,20.01 -1.92,-0.02 -3.85,-0.03 -5.77,-0.04 -2.46,-3.69 -4.98,-7.33 -7.47,-10.99 -0.02,3.67 0,7.33 -0.02,11 -1.94,0 -3.87,0 -5.8,0 0,-6.66 0.03,-13.32 -0.02,-19.97 z"
       id="path87"
       inkscape:connector-curvature="0"
       style="fill:#342c2a" />
    <path
       d="m 450.25,529.74 c 5.54,-0.04 11.08,-0.02 16.63,-0.02 -0.03,1.4 -0.05,2.81 -0.07,4.23 -3.44,-0.01 -6.87,0 -10.3,0 -0.01,1.05 -0.02,2.1 -0.02,3.16 3.03,0.01 6.06,0.01 9.1,-0.05 l -0.38,-1.87 c 0.83,1.87 0.9,3.94 1.06,5.97 -3.26,-0.01 -6.52,-0.01 -9.78,-0.01 0,1 0.01,2.98 0.02,3.98 3.54,-0.01 7.09,-0.02 10.64,-0.01 -0.01,1.52 -0.02,3.05 -0.02,4.58 -5.61,-0.02 -11.23,0.02 -16.84,-0.02 -0.07,-6.65 -0.01,-13.3 -0.04,-19.94 z"
       id="path89"
       inkscape:connector-curvature="0"
       style="fill:#342c2a" />
    <path
       d="m 597.88,529.71 c 2.26,0 4.52,0 6.78,0.01 2.41,6.68 4.99,13.29 7.45,19.95 -2.18,0.01 -4.34,0.02 -6.51,0.03 -0.31,-1.13 -0.62,-2.25 -0.92,-3.36 -2.36,-0.01 -4.72,-0.01 -7.07,-0.01 -0.32,1.12 -0.64,2.24 -0.95,3.37 -2.1,-0.01 -4.2,-0.01 -6.28,-0.01 2.48,-6.67 4.98,-13.33 7.5,-19.98 m 1.11,12.38 c 1.46,-0.01 2.93,0 4.4,0 -0.73,-2.42 -1.47,-4.83 -2.23,-7.24 -0.73,2.41 -1.45,4.83 -2.17,7.24 z"
       id="path91"
       inkscape:connector-curvature="0"
       style="fill:#342c2a" />
  </g>
  <g
     id="#342c28ff"
     transform="matrix(0.17811818,0,0,0.17811818,-31.265084,-2.840985)">
    <path
       d="m 423.38,187.43 c 6.01,-2.51 12.65,-4.33 19.16,-2.76 4.15,1.67 4.83,7.03 3.91,10.89 -1.24,5.46 -5.93,8.99 -9.98,12.41 3.72,1.87 9.67,3.75 8.85,9.03 0.21,6.22 -5.61,10.48 -11.19,11.54 1.96,4.02 2.32,9.25 -0.67,12.88 -2.42,2.75 -6.4,2.32 -9.69,2.57 -0.16,1.72 -0.09,3.48 -0.57,5.15 -2.48,4.26 -8.57,4.73 -12.4,2.08 -4.86,-3.29 -8.81,-7.91 -11.67,-13.01 6.6,4.05 11.15,12.85 19.99,11.88 0.02,-3.75 0.02,-7.5 0.23,-11.24 3.53,0.74 7.55,2.61 10.93,0.39 1.97,-1.01 1.65,-3.5 1.68,-5.34 0.13,-3.61 -3.24,-5.91 -4.3,-9.15 3.18,-0.18 7.14,1.21 9.67,-1.45 2.17,-2.12 4.82,-4.81 4.28,-8.13 -0.32,-2.1 -2.61,-3.2 -4.53,-3.29 -3.68,-0.26 -7.37,0.01 -11.03,-0.37 1.6,-2.65 4.08,-4.5 6.88,-5.71 4.18,-1.86 7.25,-5.42 9.85,-9.07 2.59,-3.22 -0.42,-9.37 -4.69,-8.91 -5.08,-0.33 -9.59,2.56 -13.51,5.45 -1.54,-0.61 -3.04,-1.32 -4.47,-2.13 1.01,-1.27 1.74,-2.96 3.27,-3.71 z"
       id="path94"
       inkscape:connector-curvature="0"
       style="fill:#342c28" />
  </g>
  <g
     id="#463e39ff"
     transform="matrix(0.17811818,0,0,0.17811818,-31.265084,-2.840985)">
    <path
       d="m 334.75,199.81 c 3.24,-0.73 7.5,-1.15 9.19,2.49 0.76,3.77 0.33,7.76 1.57,11.47 6.98,-0.99 14.91,-3.95 21.4,0.29 4.78,2.77 4.86,10.26 0.82,13.71 -5.64,5.11 -14.42,3.69 -19.94,9 -3.01,2.32 -4.45,5.9 -5.66,9.37 -0.43,0.25 -1.29,0.76 -1.72,1.01 2.24,-4.01 3.19,-8.82 6.55,-12.12 2.73,-2.78 5.92,-5.4 9.88,-6.08 3.33,-1.02 7.65,-1.13 9.7,-4.37 0.58,-3.01 1.12,-7.36 -2.29,-8.89 -5.61,-2.62 -11.56,0.59 -17.21,1.23 -2.59,0.54 -4.12,-1.76 -5.59,-3.4 0,-3.3 0.7,-6.91 -1.01,-9.92 -1.69,-1.01 -3.79,-0.75 -5.66,-1.06 -0.01,-0.68 -0.02,-2.04 -0.03,-2.73 z"
       id="path97"
       inkscape:connector-curvature="0"
       style="fill:#463e39" />
  </g>
  <g
     id="#fbd002ff"
     transform="matrix(0.17811818,0,0,0.17811818,-31.265084,-2.840985)">
    <path
       d="m 275.9,228.58 c 6.34,-3.19 12.83,-7.06 20.17,-6.91 5.84,-0.13 11.1,3.16 16.93,3.15 2.79,0.07 5.59,-0.04 8.39,-0.01 -7.14,2.55 -14.71,3.41 -22.18,4.36 -7.75,0.93 -15.61,0.74 -23.31,-0.59 z"
       id="path100"
       inkscape:connector-curvature="0"
       style="fill:#fbd002" />
  </g>
  <g
     id="#332b29ff"
     transform="matrix(0.17811818,0,0,0.17811818,-31.265084,-2.840985)">
    <path
       d="m 200.87,460.01 c 7.51,-1.26 15.3,-1.16 22.74,0.51 7.14,1.67 12.92,7.06 15.96,13.62 -0.18,-4.67 -0.09,-9.34 -0.09,-14 29.86,0.01 59.73,-0.01 89.6,0.01 5.67,0.09 11.73,0.74 16.48,4.13 2.63,1.78 4.45,4.44 6.13,7.08 -0.12,-3.75 -0.09,-7.49 -0.09,-11.24 17.7,0.04 35.4,0.02 53.1,0.02 3.5,5.21 7.08,10.36 10.56,15.59 0.01,-5.2 0.02,-10.4 0.01,-15.59 20.26,0.07 40.53,-0.12 60.8,0.09 9.99,0.18 19.43,6.16 23.68,15.23 -0.16,-5.11 -0.06,-10.22 -0.09,-15.34 12.13,0.06 24.26,-0.01 36.4,0.04 6.54,0.13 13.74,1.34 18.37,6.41 7.93,8.29 7.07,22.9 -1.5,30.46 1.53,2.27 2.92,4.65 4.22,7.07 5.45,-14.66 11.05,-29.26 16.46,-43.93 8.81,-0.08 17.63,0.03 26.44,-0.06 8.25,21.8 16.44,43.62 24.62,65.44 -10.2,-0.06 -20.4,-0.02 -30.6,-0.03 -0.9,-2.92 -1.77,-5.85 -2.63,-8.77 -3.18,0 -6.36,0.01 -9.54,0.01 -0.86,2.92 -1.72,5.83 -2.56,8.76 -14.5,0 -29.01,-0.02 -43.51,0.01 -2.47,-4.62 -5.01,-9.21 -7.45,-13.84 0.03,4.61 0,9.23 0.01,13.84 -9.58,-0.02 -19.16,-0.02 -28.74,0 0.03,-5.02 -0.06,-10.04 0.1,-15.06 -3.4,6.12 -8.82,11.47 -15.73,13.33 -7.11,2.27 -14.65,1.65 -21.99,1.72 -14.62,0.01 -29.23,-0.03 -43.84,0.02 -3.53,-5.15 -7.06,-10.28 -10.52,-15.47 -0.01,5.16 -0.01,10.31 0,15.46 -26.04,-0.03 -52.08,0.01 -78.12,-0.02 -2.44,-4.62 -4.95,-9.2 -7.4,-13.81 0.05,4.61 0.02,9.22 0.04,13.83 -27.58,-0.02 -55.15,-0.01 -82.73,-0.01 0.01,-2.91 0,-5.82 0.01,-8.72 -6.43,4.35 -13.51,8.17 -21.34,9.06 -9.4,1.16 -19.63,0.88 -27.97,-4.11 -7.98,-4.73 -12.77,-13.6 -14.02,-22.62 -1.09,-8.18 -0.25,-16.89 3.78,-24.21 4.22,-7.83 12.18,-13.47 20.95,-14.91 m -18.05,24.76 c -1.76,9.19 -0.87,19.6 5.29,27.08 4.79,5.91 12.64,8.08 19.96,8.37 9.93,0.65 19.62,-2.74 27.67,-8.41 0.05,-7.51 0.02,-15.03 0.03,-22.54 -8.38,0.07 -16.77,-0.14 -25.15,0.12 0.06,3.49 0.08,6.98 0.1,10.47 3.66,0.15 7.33,0.2 11,0.28 -0.04,1.75 -0.08,3.51 -0.11,5.27 -3.89,2.06 -8.16,3.91 -12.67,3.29 -4.78,-0.26 -9.11,-3.85 -9.97,-8.61 -1.18,-5.84 -1.44,-12.37 1.3,-17.83 3.9,-7.27 16.15,-7.33 19.42,0.59 5.16,-0.67 10.29,-1.61 15.4,-2.61 -1.75,-5.96 -5.83,-11.63 -12.07,-13.33 -7.1,-1.91 -14.68,-1.82 -21.88,-0.56 -9.14,1.7 -16.44,9.41 -18.32,18.42 m 62.88,-18.25 c 0.12,17.59 0,35.17 0.06,52.76 14.86,0 29.72,-0.02 44.59,0.02 0,-3.93 0.01,-7.87 0.02,-11.79 -9.48,-0.07 -18.95,0.02 -28.43,-0.06 -0.12,-3.59 -0.06,-7.18 0.23,-10.75 8.45,0 16.91,0.01 25.36,-0.01 -0.01,-3.48 0,-6.95 0.01,-10.42 -8.42,-0.05 -16.84,-0.12 -25.25,0.05 -0.38,-2.95 -0.44,-5.93 -0.19,-8.88 9.13,0.04 18.26,0.04 27.39,0.01 0.03,-3.68 0.04,-7.36 0.04,-11.03 -14.61,0.02 -29.22,-0.18 -43.83,0.1 m 53.97,-0.06 c -0.02,17.61 -0.03,35.22 0,52.84 5.37,-0.03 10.74,-0.02 16.12,-0.02 0.07,-7.31 -0.01,-14.61 0.05,-21.92 2.66,0.5 5.94,0.65 7.34,3.41 3.76,6.01 6.62,12.54 10.38,18.57 5.92,-0.11 11.83,-0.01 17.75,-0.12 -2.6,-5.73 -5.37,-11.42 -8.62,-16.81 -1.73,-3.03 -4.64,-5.06 -7.72,-6.54 2.56,-0.93 5.26,-1.77 7.38,-3.56 6.71,-5.45 6.82,-17.2 0,-22.6 -4.1,-3.05 -9.44,-3.24 -14.34,-3.31 -9.45,0.01 -18.89,-0.07 -28.34,0.06 m 58.05,0.05 c 0.27,17.53 -0.27,35.09 0.27,52.61 5.22,0.42 10.48,0.05 15.72,0.24 0.46,-3.79 0.55,-7.61 0.48,-11.42 -0.18,-13.85 0.24,-27.7 -0.22,-41.54 -5.42,-0.03 -10.84,-0.05 -16.25,0.11 m 28.54,-0.11 c 0.06,17.65 -0.18,35.3 0.13,52.94 4.99,-0.07 9.98,-0.08 14.98,-0.06 0.06,-9.78 -0.02,-19.55 0.07,-29.33 6.84,9.72 13.3,19.72 20.24,29.38 4.98,-0.07 9.97,-0.06 14.97,-0.04 0.14,-17.63 0.04,-35.26 0.05,-52.88 -5.05,-0.03 -10.09,-0.03 -15.14,0.02 -0.05,9.7 0.15,19.4 -0.11,29.1 -7.02,-9.46 -13.37,-19.41 -20.04,-29.13 -5.05,-0.01 -10.1,-0.01 -15.15,0 m 61.95,0.02 c 0.03,17.62 -0.02,35.24 0.02,52.86 6.92,0.02 13.85,-0.04 20.77,0.03 5.1,0.04 10.33,-0.31 15.14,-2.18 7.13,-3.03 11.74,-10.48 12.31,-18.08 0.76,-8.37 0.47,-17.63 -4.76,-24.64 -3.68,-5.09 -9.93,-7.72 -16.09,-7.92 -9.12,-0.25 -18.26,-0.03 -27.39,-0.07 m 57.67,-0.04 c -0.19,14.23 0.01,28.45 -0.1,42.68 -0.03,3.43 0.06,6.87 0.42,10.3 5.34,-0.1 10.69,-0.08 16.03,-0.08 0.04,-7.31 -0.05,-14.62 0.08,-21.93 2.54,0.5 5.64,0.72 7.04,3.29 3.78,6.02 6.71,12.55 10.32,18.68 6.05,-0.07 12.1,-0.02 18.15,-0.05 -3.09,-5.65 -5.6,-11.61 -9.03,-17.06 -1.76,-2.96 -4.63,-4.99 -7.76,-6.29 4.19,-1.21 8.49,-3.26 10.68,-7.25 3.28,-6.03 2.45,-14.71 -3.22,-19.05 -3.86,-2.83 -8.87,-3.08 -13.48,-3.2 -9.71,-0.06 -19.42,0 -29.13,-0.04 m 72.07,0.08 c -6.5,17.64 -13.25,35.18 -19.78,52.81 5.43,0.01 10.87,-0.02 16.31,0.04 0.97,-2.93 1.87,-5.88 2.77,-8.83 6.29,-0.02 12.58,-0.04 18.88,0.02 0.85,2.94 1.75,5.87 2.66,8.8 5.49,-0.02 10.99,0.01 16.49,-0.04 -5.91,-17.82 -13.13,-35.18 -19.51,-52.84 -5.94,-0.04 -11.89,-0.06 -17.82,0.04 m -231.26,30.6 c 1.89,2.71 3.49,5.61 4.95,8.57 -0.03,-5 -0.1,-9.99 0.05,-14.99 -1.5,2.27 -3.18,4.4 -5,6.42 z"
       id="path103"
       inkscape:connector-curvature="0"
       style="fill:#332b29" />
    <path
       d="m 315.91,476.78 c 3.92,0.05 7.94,-0.38 11.79,0.6 2.18,0.51 2.91,2.92 4.05,4.56 -1.08,1.79 -1.56,4.45 -3.86,5.09 -3.93,1.16 -8.07,0.73 -12.1,0.76 0.01,-3.67 0.03,-7.35 0.12,-11.01 z"
       id="path105"
       inkscape:connector-curvature="0"
       style="fill:#332b29" />
    <path
       d="m 464.31,478.2 c 5.08,-0.06 11.87,-0.58 14.59,4.8 2.31,6.27 2.42,13.64 0.12,19.93 -2.61,5.53 -9.66,4.36 -14.66,4.59 -0.1,-9.78 0.01,-19.55 -0.05,-29.32 m 6.4,5.84 c -0.2,5.87 -0.18,11.74 -0.03,17.62 4.11,-0.82 3.54,-5.49 3.64,-8.63 -0.11,-3.3 0.22,-7.65 -3.61,-8.99 z"
       id="path107"
       inkscape:connector-curvature="0"
       style="fill:#332b29" />
    <path
       d="m 586.79,479.75 c 1.89,6.52 4.03,12.98 5.92,19.51 -3.94,0.04 -7.87,0.04 -11.8,0.06 1.62,-6.62 3.67,-13.13 5.88,-19.57 z"
       id="path109"
       inkscape:connector-curvature="0"
       style="fill:#332b29" />
    <path
       d="m 207.3,529.72 c 5.52,0.01 11.05,-0.01 16.58,0 -0.03,1.41 -0.05,2.82 -0.07,4.24 -3.43,-0.02 -6.86,-0.02 -10.29,-0.01 0,0.79 0,2.38 -0.01,3.17 3.2,-0.01 6.39,0 9.59,-0.04 0,1.36 0,2.71 0.01,4.08 -3.2,-0.01 -6.4,-0.01 -9.6,0 0.01,0.99 0.02,2.98 0.03,3.97 3.54,-0.01 7.08,0 10.62,-0.02 -0.01,1.52 -0.01,3.05 -0.01,4.59 -5.61,-0.02 -11.21,0.01 -16.82,-0.02 -0.04,-6.65 0.02,-13.31 -0.03,-19.96 z"
       id="path111"
       inkscape:connector-curvature="0"
       style="fill:#332b29" />
    <path
       d="m 270.84,529.72 c 2.07,0 4.14,0 6.21,0 0,2.49 0,4.99 -0.01,7.49 2.12,-2.5 4.26,-4.98 6.37,-7.48 2.76,-0.01 5.52,-0.02 8.28,0 -2.43,2.49 -4.86,4.99 -7.3,7.47 2.56,4.14 5.11,8.29 7.59,12.48 -2.52,0.01 -5.04,0.01 -7.57,-0.01 -1.39,-2.75 -2.8,-5.5 -4.21,-8.25 -1.06,1.11 -2.11,2.23 -3.16,3.35 0,1.63 0,3.27 0.01,4.92 -2.07,0 -4.14,0 -6.2,0.01 -0.01,-6.66 0.01,-13.32 -0.01,-19.98 z"
       id="path113"
       inkscape:connector-curvature="0"
       style="fill:#332b29" />
    <path
       d="m 552.59,547.8 c 2.51,-5.95 4.64,-12.05 6.92,-18.09 2.24,0.01 4.49,0.01 6.74,0.01 2.51,6.66 5.07,13.3 7.52,19.99 -2.15,-0.02 -4.28,-0.02 -6.41,-0.02 -0.35,-1.12 -0.69,-2.23 -1.02,-3.34 -2.34,-0.01 -4.67,-0.01 -7,-0.03 -0.34,1.11 -0.68,2.22 -1.01,3.34 -1.1,0.03 -3.31,0.08 -4.41,0.1 -0.46,-0.65 -0.9,-1.31 -1.33,-1.96 m 10.26,-12.84 c -0.78,2.37 -1.53,4.75 -2.24,7.14 1.47,-0.01 2.94,-0.01 4.42,0 -0.72,-2.39 -1.44,-4.77 -2.18,-7.14 z"
       id="path115"
       inkscape:connector-curvature="0"
       style="fill:#332b29" />
  </g>
  <g
     id="#fefefeff"
     transform="translate(-175.53,-454.92533)" />
  <g
     id="#fefefcff"
     transform="translate(-175.53,-454.92533)" />
  <g
     id="#342b2aff"
     transform="matrix(0.17811818,0,0,0.17811818,-31.265084,-2.840985)">
    <path
       d="m 473.35,530.27 c 4.97,-2.01 12.49,-1.31 13.88,4.93 -1.9,0.14 -3.78,0.29 -5.67,0.43 -0.99,-2.54 -5.12,-3.88 -6.11,-0.63 3.25,1.82 7.38,1.63 10.31,4.07 2.85,2.54 1.97,7.53 -1.16,9.44 -3.24,1.98 -7.45,1.87 -10.96,0.75 -2.76,-0.84 -3.65,-3.76 -4.61,-6.13 1.9,-0.17 3.8,-0.3 5.71,-0.41 0.97,3.1 5.49,4.91 7.06,1.26 -2.31,-3.5 -7.65,-2.26 -10.4,-5.38 -2.43,-2.52 -1.17,-7.02 1.95,-8.33 z"
       id="path120"
       inkscape:connector-curvature="0"
       style="fill:#342b2a" />
    <path
       d="m 247.44,549.8 c 1.89,-6.86 4.79,-13.39 7.19,-20.08 2.25,-0.01 4.49,-0.01 6.74,-0.01 2.51,6.65 5.01,13.3 7.49,19.96 -2.12,0.01 -4.23,0.03 -6.34,0.06 -0.37,-1.13 -0.74,-2.27 -1.1,-3.39 -2.33,0 -4.65,0 -6.97,-0.02 -0.35,1.11 -0.7,2.23 -1.04,3.36 -1.99,0.01 -3.98,0.05 -5.97,0.12 m 8.27,-7.69 c 1.48,-0.01 2.96,-0.03 4.44,-0.03 -0.74,-2.42 -1.47,-4.84 -2.2,-7.26 -0.76,2.43 -1.5,4.86 -2.24,7.29 z"
       id="path122"
       inkscape:connector-curvature="0"
       style="fill:#342b2a" />
    <path
       d="m 499.41,549.68 c 2.46,-6.67 4.97,-13.32 7.5,-19.97 2.25,0 4.51,0 6.77,0.02 2.42,6.68 4.98,13.3 7.46,19.96 -2.18,0 -4.35,0 -6.52,-0.01 -0.32,-1.12 -0.63,-2.24 -0.94,-3.34 -2.35,0 -4.69,0 -7.03,0.01 -0.34,1.11 -0.67,2.23 -1,3.36 -2.08,-0.01 -4.16,-0.02 -6.24,-0.03 m 8.59,-7.59 c 1.46,-0.01 2.93,0 4.4,0.01 -0.72,-2.43 -1.46,-4.84 -2.22,-7.24 -0.74,2.4 -1.45,4.82 -2.18,7.23 z"
       id="path124"
       inkscape:connector-curvature="0"
       style="fill:#342b2a" />
    <path
       d="m 571.34,529.72 c 2.29,-0.01 4.59,-0.01 6.89,0 1.32,2.23 2.64,4.46 3.98,6.69 1.34,-2.22 2.67,-4.45 4,-6.68 2.28,-0.01 4.56,-0.02 6.85,-0.02 -2.63,3.86 -5.22,7.75 -7.81,11.65 0,2.77 0,5.55 0,8.34 -2.04,-0.01 -4.08,-0.01 -6.11,-0.02 -0.27,-3.49 0.92,-7.5 -1.42,-10.49 -2.1,-3.18 -4.26,-6.32 -6.38,-9.47 z"
       id="path126"
       inkscape:connector-curvature="0"
       style="fill:#342b2a" />
  </g>
  <g
     id="#332b2aff"
     transform="matrix(0.17811818,0,0,0.17811818,-31.265084,-2.840985)">
    <path
       d="m 189.46,549.35 c -8.02,-2.7 -8.17,-16.15 -0.37,-19.21 5.15,-1.7 12.65,-1.34 14.55,4.8 -2.16,0.06 -4.8,1.8 -6.71,0.12 -1.67,-1.48 -4.41,-1.87 -6.02,-0.11 -1.73,2.24 -1.5,5.4 -0.9,8.01 1.44,3.75 7.68,3.53 8.85,-0.35 -1.57,-0.12 -3.13,-0.21 -4.7,-0.28 0.02,-1.36 0.03,-2.72 0.04,-4.07 3.19,0.01 6.38,0 9.57,0.02 0.01,2.87 0.01,5.74 -0.02,8.62 -4.18,2.71 -9.44,4.08 -14.29,2.45 z"
       id="path129"
       inkscape:connector-curvature="0"
       style="fill:#332b2a" />
  </g>
  <g
     id="#fffefcff"
     transform="translate(-175.53,-454.92533)" />
  <g
     id="#fefdfbff"
     transform="translate(-175.53,-454.92533)" />
  <g
     id="#fdfefcff"
     transform="translate(-175.53,-454.92533)" />
</svg>
