<?xml version="1.0" encoding="UTF-8" standalone="no"?>
<svg
   xmlns:dc="http://purl.org/dc/elements/1.1/"
   xmlns:cc="http://creativecommons.org/ns#"
   xmlns:rdf="http://www.w3.org/1999/02/22-rdf-syntax-ns#"
   xmlns:svg="http://www.w3.org/2000/svg"
   xmlns="http://www.w3.org/2000/svg"
   xmlns:sodipodi="http://sodipodi.sourceforge.net/DTD/sodipodi-0.dtd"
   xmlns:inkscape="http://www.inkscape.org/namespaces/inkscape"
   width="354.217"
   height="468.794"
   id="svg2816"
   version="1.1"
   inkscape:version="0.47pre1"
   sodipodi:docname="indo_partai_keadilan_sejahtera.cdr"
   inkscape:output_extension="org.inkscape.output.svg.inkscape">
  <title
     id="title2848">Logo of Prosperous Justice Party</title>
  <metadata
     id="metadata2840">
    <rdf:RDF>
      <cc:Work
         rdf:about="">
        <dc:format>image/svg+xml</dc:format>
        <dc:type
           rdf:resource="http://purl.org/dc/dcmitype/StillImage" />
        <dc:title>Logo of Prosperous Justice Party</dc:title>
      </cc:Work>
    </rdf:RDF>
  </metadata>
  <sodipodi:namedview
     pagecolor="#ffffff"
     bordercolor="#666666"
     borderopacity="1"
     objecttolerance="10"
     gridtolerance="10"
     guidetolerance="10"
     inkscape:pageopacity="0"
     inkscape:pageshadow="2"
     inkscape:window-width="1280"
     inkscape:window-height="744"
     id="namedview2838"
     showgrid="false"
     inkscape:zoom="0.17798564"
     inkscape:cx="1413.064"
     inkscape:cy="-348.71983"
     inkscape:window-x="-4"
     inkscape:window-y="-4"
     inkscape:window-maximized="1"
     inkscape:current-layer="g2828" />
  <defs
     id="defs2818">
    <inkscape:perspective
       sodipodi:type="inkscape:persp3d"
       inkscape:vp_x="0 : 234.397 : 1"
       inkscape:vp_y="0 : 1000 : 0"
       inkscape:vp_z="354.21701 : 234.397 : 1"
       inkscape:persp3d-origin="177.10851 : 156.26467 : 1"
       id="perspective2842" />
    <marker
       id="ArrowEnd"
       viewBox="0 0 10 10"
       refX="0"
       refY="5"
       markerUnits="strokeWidth"
       markerWidth="4"
       markerHeight="3"
       orient="auto">
      <path
         d="M 0 0 L 10 5 L 0 10 z"
         id="path2821" />
    </marker>
    <marker
       id="ArrowStart"
       viewBox="0 0 10 10"
       refX="10"
       refY="5"
       markerUnits="strokeWidth"
       markerWidth="4"
       markerHeight="3"
       orient="auto">
      <path
         d="M 10 0 L 0 5 L 10 10 z"
         id="path2824" />
    </marker>
  </defs>
  <g
     id="g2826">
    <g
       id="g2828">
      <path
         style="stroke:#ffffff; stroke-width:1.0001880000000001; fill:#000000"
         d="M 5.24182 119.82L 348.975 119.82L 348.975 463.553L 5.24182 463.553L 5.24182 119.82z"
         id="path2830" />
      <path
         style="stroke:#ffffff; stroke-width:1.0001880000000001; fill:#000000"
         d="M 5.24182 5.24182L 348.975 5.24182L 348.975 97.786L 5.24182 97.786L 5.24182 5.24182z"
         id="path2832" />
      <path
         style="stroke:#000000; stroke-width:0.216027; fill:#ffe400"
         d="M 39.7562 424.133L 48.4502 423.404C 48.6355 425.295 49.02 426.733 49.5992 427.729C 50.5349 429.334 51.8848 430.126 53.6332 430.126C 54.9349 430.126 55.9391 429.72 56.649 428.899C 57.3512 428.079 57.7015 427.129 57.7015 426.051C 57.7015 425.027 57.3699 424.105 56.6957 423.294C 56.0216 422.484 54.4662 421.718 52.0156 420.999C 48.0096 419.79 45.1526 418.195 43.4446 416.195C 41.7241 414.195 40.8632 411.65 40.8632 408.552C 40.8632 406.514 41.3054 404.588 42.185 402.782C 43.0662 400.975 44.3881 399.555 46.1568 398.512C 47.927 397.48 50.3496 396.963 53.4277 396.963C 57.2048 396.963 60.0899 397.904 62.0719 399.785C 64.0554 401.666 65.2309 404.661 65.6108 408.765L 56.9993 409.438C 56.772 407.658 56.2909 406.358 55.5529 405.547C 54.8243 404.745 53.8123 404.339 52.5247 404.339C 51.4582 404.339 50.6595 404.635 50.1223 405.243C 49.5852 405.841 49.3174 406.579 49.3174 407.446C 49.3174 408.074 49.5369 408.635 49.9775 409.143C 50.4119 409.669 51.4302 410.147 53.0478 410.6C 57.0398 411.751 59.8984 412.922 61.625 414.102C 63.3517 415.283 64.6128 416.74 65.3975 418.491C 66.1822 420.233 66.5808 422.188 66.5808 424.354C 66.5808 426.889 66.0514 429.232 65.0051 431.371C 63.9589 433.518 62.4922 435.141 60.6052 436.247C 58.726 437.353 56.3517 437.907 53.4884 437.907C 48.4642 437.907 44.9798 436.617 43.046 434.016C 41.1045 431.425 40.01 428.135 39.7562 424.133zM 293.944 185.054C 304.757 185.054 315.105 187.088 324.627 190.786C 281.319 190.978 246.057 226.127 246.057 269.201C 246.057 312.275 281.317 347.423 324.624 347.617C 315.103 351.314 304.756 353.349 293.944 353.349C 247.298 353.349 209.254 315.549 209.254 269.201C 209.254 222.854 247.298 185.054 293.944 185.054zM 59.694 185.054C 48.881 185.054 38.5328 187.088 29.0111 190.786C 72.3195 190.978 107.581 226.127 107.581 269.201C 107.581 312.275 72.3214 347.423 29.0145 347.617C 38.535 351.314 48.8823 353.349 59.694 353.349C 106.34 353.349 144.384 315.549 144.384 269.201C 144.384 222.854 106.34 185.054 59.694 185.054zM 25.2299 32.1807L 36.429 32.1807C 38.8672 32.1807 40.695 33.2512 41.9079 35.3999C 43.1223 37.5394 43.7311 40.5993 43.7311 44.5503C 43.7311 48.6234 43.0709 51.8055 41.746 54.095C 40.421 56.3846 38.4001 57.5293 35.6848 57.5293L 31.9979 57.5293L 31.9979 72.49L 25.2299 72.49L 25.2299 32.1807zM 31.9979 49.3644L 33.6483 49.3644C 34.9483 49.3644 35.856 48.9514 36.3838 48.116C 36.907 47.2807 37.1716 46.2117 37.1716 44.9169C 37.1716 43.6499 36.9428 42.5701 36.485 41.6976C 36.0335 40.8143 35.1757 40.3734 33.9161 40.3734L 31.9979 40.3734L 31.9979 49.3644zM 58.083 65.8365L 50.4072 65.8365L 49.3516 72.49L 42.4668 72.49L 50.661 32.1807L 58.0082 32.1807L 66.2071 72.49L 59.1542 72.49L 58.083 65.8365zM 56.6724 57.1178L 54.2607 42.6259L 51.8645 57.1178L 56.6724 57.1178zM 68.4507 72.49L 68.4507 32.1807L 79.6809 32.1807C 81.7626 32.1807 83.3569 32.5087 84.453 33.1754C 85.5553 33.8328 86.4427 35.0519 87.1184 36.8448C 87.7942 38.6285 88.1289 40.8051 88.1289 43.3684C 88.1289 45.6115 87.8705 47.5344 87.3566 49.1587C 86.8398 50.7814 86.1282 52.0964 85.2299 53.1096C 84.6523 53.7485 83.8644 54.2822 82.8649 54.6953C 83.6667 55.1934 84.2506 55.69 84.6211 56.1881C 84.8655 56.5161 85.2252 57.2199 85.6985 58.2997C 86.1703 59.3888 86.4848 60.2149 86.642 60.8058L 89.9007 72.49L 82.2857 72.49L 78.6861 60.1669C 78.2283 58.5813 77.8235 57.5401 77.4623 57.0606C 76.9796 56.4418 76.4269 56.1324 75.8119 56.1324L 75.2187 56.1324L 75.2187 72.49L 68.4507 72.49zM 75.2187 48.5105L 78.0617 48.5105C 78.3669 48.5105 78.9601 48.3326 79.8444 47.966C 80.2897 47.7973 80.6556 47.375 80.9405 46.699C 81.2192 46.0245 81.3609 45.2448 81.3609 44.3631C 81.3609 43.0574 81.1382 42.0627 80.6914 41.3682C 80.2445 40.6643 79.4069 40.3178 78.1785 40.3178L 75.2187 40.3178L 75.2187 48.5105zM 90.2557 32.1807L 110.737 32.1807L 110.737 42.1385L 103.862 42.1385L 103.862 72.49L 97.1249 72.49L 97.1249 42.1385L 90.2557 42.1385L 90.2557 32.1807zM 125.136 65.8365L 117.459 65.8365L 116.403 72.49L 109.518 72.49L 117.712 32.1807L 125.06 32.1807L 133.259 72.49L 126.207 72.49L 125.136 65.8365zM 123.724 57.1178L 121.312 42.6259L 118.916 57.1178L 123.724 57.1178zM 135.681 32.1807L 142.434 32.1807L 142.434 72.49L 135.681 72.49L 135.681 32.1807zM 157.457 32.1807L 164.192 32.1807L 164.192 47.4122L 171.259 32.1807L 180.216 32.1807L 172.271 47.3843L 180.571 72.49L 172.271 72.49L 167.675 55.9065L 164.192 62.6451L 164.192 72.49L 157.457 72.49L 157.457 32.1807zM 182.79 32.1807L 200.844 32.1807L 200.844 40.7865L 189.542 40.7865L 189.542 47.1971L 200.027 47.1971L 200.027 55.4177L 189.542 55.4177L 189.542 63.3583L 201.174 63.3583L 201.174 72.49L 182.79 72.49L 182.79 32.1807zM 218.218 65.8365L 210.541 65.8365L 209.485 72.49L 202.6 72.49L 210.794 32.1807L 218.142 32.1807L 226.34 72.49L 219.289 72.49L 218.218 65.8365zM 216.806 57.1178L 214.394 42.6259L 211.998 57.1178L 216.806 57.1178zM 228.586 32.1807L 238.595 32.1807C 240.566 32.1807 242.161 32.6773 243.378 33.6642C 244.593 34.659 245.598 36.076 246.389 37.9246C 247.182 39.7825 247.755 41.9312 248.116 44.3909C 248.471 46.849 248.648 49.4495 248.648 52.2C 248.648 56.5068 248.384 59.8482 247.851 62.2228C 247.323 64.5974 246.587 66.5868 245.643 68.1817C 244.705 69.7875 243.693 70.8564 242.612 71.3917C 241.135 72.1234 239.794 72.49 238.595 72.49L 228.586 72.49L 228.586 32.1807zM 235.321 41.3124L 235.321 63.3305L 236.971 63.3305C 238.383 63.3305 239.383 63.0489 239.978 62.4672C 240.571 61.8949 241.038 60.88 241.379 59.4445C 241.714 58.0089 241.882 55.6714 241.882 52.4429C 241.882 48.1732 241.505 45.2541 240.755 43.6778C 239.998 42.1014 238.748 41.3124 237.002 41.3124L 235.321 41.3124zM 252.457 32.1807L 259.209 32.1807L 259.209 72.49L 252.457 72.49L 252.457 32.1807zM 264.042 32.1807L 270.783 32.1807L 270.783 62.5601L 281.299 62.5601L 281.299 72.49L 264.042 72.49L 264.042 32.1807zM 297.778 65.8365L 290.102 65.8365L 289.046 72.49L 282.162 72.49L 290.356 32.1807L 297.701 32.1807L 305.902 72.49L 298.849 72.49L 297.778 65.8365zM 296.366 57.1178L 293.956 42.6259L 291.559 57.1178L 296.366 57.1178zM 308.1 32.1807L 314.395 32.1807L 322.605 54.4802L 322.605 32.1807L 328.956 32.1807L 328.956 72.49L 322.605 72.49L 314.436 50.3591L 314.436 72.49L 308.1 72.49L 308.1 32.1807zM 178.073 365.548L 178.073 374.495L 175.893 374.495L 175.893 365.402L 170.533 358.34C 160.692 351.831 155.847 340.617 155.789 324.386C 165.538 333.399 170.981 344.3 171.227 357.478L 175.893 363.812L 175.893 344.114L 170.533 337.095C 160.692 330.586 155.847 319.373 155.789 303.142C 165.538 312.154 170.981 323.055 171.227 336.234L 175.893 342.473L 175.893 323.166L 170.533 316.134C 160.692 309.625 155.847 298.411 155.789 282.181C 165.538 291.193 170.981 302.094 171.227 315.272L 175.907 321.596L 175.893 301.41L 170.533 294.323C 160.692 287.814 155.847 276.6 155.789 260.369C 165.538 269.382 170.981 280.283 171.227 293.461L 175.893 299.753L 175.893 280.172L 170.533 273.078C 160.692 266.569 155.847 255.356 155.789 239.125C 165.538 248.137 170.981 259.038 171.227 272.217L 175.893 278.416L 175.893 258.652L 170.533 251.551C 160.692 245.041 155.847 233.828 155.789 217.597C 165.538 226.609 170.981 237.51 171.227 250.689L 175.893 256.861L 175.893 236.806L 170.533 229.739C 160.692 223.23 155.847 212.017 155.789 195.786C 165.538 204.798 170.981 215.699 171.227 228.878L 175.893 234.99L 175.893 216.143L 170.533 209.061C 160.692 202.552 155.847 191.339 155.789 175.108C 165.538 184.12 170.981 195.021 171.227 208.2L 175.893 214.318L 175.893 200.915C 170.024 190.762 170.152 178.914 177.017 164.189C 183.589 176.852 185.07 189.084 178.073 200.915L 178.073 214.628L 182.938 208.2C 183.183 195.021 188.627 184.12 198.376 175.108C 198.317 191.339 193.473 202.552 183.632 209.061L 178.073 216.367L 178.073 235.314L 182.938 228.878C 183.183 215.699 188.627 204.798 198.376 195.786C 198.317 212.017 193.473 223.23 183.632 229.739L 178.073 236.987L 178.073 257.106L 182.938 250.689C 183.183 237.51 188.627 226.609 198.376 217.597C 198.317 233.828 193.473 245.041 183.632 251.551L 178.073 258.982L 178.073 278.705L 182.938 272.217C 183.183 259.038 188.627 248.137 198.376 239.125C 198.317 255.356 193.473 266.569 183.632 273.078L 178.073 280.331L 178.073 299.83L 182.938 293.461C 183.183 280.283 188.627 269.382 198.376 260.369C 198.317 276.6 193.473 287.814 183.632 294.323L 178.073 301.539L 178.073 321.786L 182.938 315.272C 183.183 302.094 188.627 291.193 198.376 282.181C 198.317 298.411 193.473 309.625 183.632 316.134L 178.073 323.343L 178.073 342.732L 182.938 336.234C 183.183 323.055 188.627 312.154 198.376 303.142C 198.317 319.373 193.473 330.586 183.632 337.095L 178.073 344.301L 178.073 364.023L 182.938 357.478C 183.183 344.3 188.627 333.399 198.376 324.386C 198.317 340.617 193.473 351.831 183.632 358.34L 178.073 365.548zM 71.1582 397.636L 95.6365 397.636L 95.6365 406.09L 80.3146 406.09L 80.3146 412.388L 94.528 412.388L 94.528 420.463L 80.3146 420.463L 80.3146 428.263L 96.0833 428.263L 96.0833 437.234L 71.1582 437.234L 71.1582 397.636zM 113.306 397.636L 122.463 397.636L 122.463 419.164C 122.463 423.681 122.159 427.12 121.561 429.481C 120.962 431.841 119.763 433.841 117.954 435.483C 116.143 437.115 113.829 437.935 111.008 437.935C 108.02 437.935 105.708 437.4 104.069 436.312C 102.425 435.234 101.157 433.657 100.27 431.574C 99.3747 429.499 98.8453 426.927 98.6866 423.865L 107.415 422.27C 107.429 424.014 107.546 425.313 107.759 426.161C 107.972 427.01 108.337 427.692 108.846 428.207C 109.197 428.559 109.693 428.724 110.34 428.724C 111.36 428.724 112.109 428.217 112.59 427.203C 113.067 426.179 113.306 424.465 113.306 422.058L 113.306 397.636zM 145.675 430.698L 135.267 430.698L 133.835 437.234L 124.501 437.234L 135.611 397.636L 145.571 397.636L 156.687 437.234L 147.126 437.234L 145.675 430.698zM 143.76 422.133L 140.491 407.897L 137.241 422.133L 143.76 422.133zM 159.649 397.636L 168.783 397.636L 168.783 411.494L 178.771 411.494L 178.771 397.636L 187.946 397.636L 187.946 437.234L 178.771 437.234L 178.771 421.22L 168.783 421.22L 168.783 437.234L 159.649 437.234L 159.649 397.636zM 191.938 397.636L 219.708 397.636L 219.708 407.418L 210.386 407.418L 210.386 437.234L 201.253 437.234L 201.253 407.418L 191.938 407.418L 191.938 397.636zM 223.824 397.636L 248.303 397.636L 248.303 406.09L 232.979 406.09L 232.979 412.388L 247.194 412.388L 247.194 420.463L 232.979 420.463L 232.979 428.263L 248.75 428.263L 248.75 437.234L 223.824 437.234L 223.824 397.636zM 253.789 437.234L 253.789 397.636L 269.015 397.636C 271.838 397.636 273.999 397.96 275.485 398.614C 276.98 399.259 278.185 400.458 279.099 402.218C 280.016 403.971 280.469 406.109 280.469 408.626C 280.469 410.83 280.119 412.719 279.423 414.314C 278.721 415.909 277.757 417.201 276.539 418.195C 275.755 418.824 274.687 419.348 273.331 419.753C 274.419 420.242 275.21 420.731 275.713 421.22C 276.043 421.543 276.532 422.235 277.173 423.294C 277.813 424.363 278.24 425.175 278.453 425.755L 282.872 437.234L 272.547 437.234L 267.666 425.129C 267.047 423.571 266.496 422.547 266.007 422.077C 265.353 421.469 264.602 421.164 263.769 421.164L 262.964 421.164L 262.964 437.234L 253.789 437.234zM 262.964 413.678L 266.819 413.678C 267.232 413.678 268.037 413.504 269.236 413.143C 269.842 412.978 270.337 412.563 270.723 411.899C 271.101 411.236 271.294 410.47 271.294 409.604C 271.294 408.321 270.991 407.345 270.385 406.663C 269.779 405.971 268.644 405.629 266.977 405.629L 262.964 405.629L 262.964 413.678zM 303.985 430.698L 293.577 430.698L 292.145 437.234L 282.811 437.234L 293.921 397.636L 303.881 397.636L 314.998 437.234L 305.436 437.234L 303.985 430.698zM 302.07 422.133L 298.801 407.897L 295.551 422.133L 302.07 422.133z"
         id="path2834" />
    </g>
  </g>
  <g
     id="g2836" />
</svg>
